<svg width="252" height="252" viewBox="0 0 252 252" fill="none" xmlns="http://www.w3.org/2000/svg">
<circle cx="126" cy="126" r="126" fill="#EFE1C5"/>
<mask id="mask0_80_602" style="mask-type:alpha" maskUnits="userSpaceOnUse" x="0" y="0" width="252" height="252">
<circle cx="126" cy="126" r="126" fill="#EFE1C5"/>
</mask>
<g mask="url(#mask0_80_602)">
<path d="M16 1.00001C-53.5776 1.00001 -110 57.4224 -110 127L142 127C142 57.4224 85.5977 1.00002 16 1.00001Z" fill="#FFC329"/>
<path d="M-110 127L-110 253L142 253L142 127L-110 127Z" fill="#FFC329"/>
<path d="M16.5 57C-22.4361 57 -54 88.5639 -54 127.5C-54 166.436 -22.4361 198 16.5 198C55.4361 198 87 166.436 87 127.5C87 88.5639 55.4361 57 16.5 57Z" fill="#FE862F"/>
<path d="M273 248H180V341H273V248Z" fill="#FE862F"/>
<path d="M180 248H273V341L180 248Z" fill="#8D3232"/>
<path d="M68 -18L68 252H245L245 -18H68Z" fill="#8D3232"/>
<path d="M273 -31H180V248H273V-31Z" fill="#FE862F"/>
<path d="M255.217 22.8536C258.987 7.02842 249.214 -8.85678 233.389 -12.6269C217.564 -16.397 201.679 -6.62431 197.909 9.20091C194.138 25.0261 203.911 40.9112 219.736 44.6813C235.561 48.4514 251.447 38.6789 255.217 22.8536Z" fill="#FFC329"/>
<path d="M247.359 129.376C258.862 117.872 258.862 99.2219 247.359 87.7186C235.855 76.2153 217.205 76.2153 205.701 87.7186C194.198 99.2219 194.198 117.872 205.701 129.376C217.205 140.879 235.855 140.879 247.359 129.376Z" fill="#FFC329"/>
<path d="M255.224 207.933C258.994 192.108 249.221 176.223 233.396 172.453C217.571 168.683 201.686 178.455 197.916 194.28C194.146 210.106 203.918 225.991 219.743 229.761C235.569 233.531 251.454 223.758 255.224 207.933Z" fill="#FFC329"/>
<path d="M252 82V269H159V175.195C159 123.754 200.667 82 252 82Z" fill="#206012"/>
<path d="M179.953 -29.9836C179.953 -29.9836 182.136 14.2483 156.773 39.1989C131.411 64.1643 88.0506 61.9497 88.0506 61.9497C88.0506 61.9497 85.8084 19.2827 111.171 -5.68263C136.534 -30.648 179.953 -29.9984 179.953 -29.9984V-29.9836Z" fill="#206012"/>
</g>
<path d="M126.516 167.99C114.354 167.99 102.192 168 90.0305 167.99C83.7037 167.98 80.0337 164.317 80.0288 157.961C80.0039 142.1 79.9543 126.239 80.0983 110.379C80.1182 108.255 80.8184 105.937 81.8563 104.068C84.6671 99.0037 87.8504 94.1488 90.835 89.1742C92.9357 85.67 95.9004 83.9902 100.042 84.0052C117.662 84.0749 135.286 84.0799 152.906 84.0002C157.058 83.9802 160.033 85.66 162.143 89.1393C165.277 94.3083 168.525 99.4125 171.514 104.666C172.373 106.177 172.91 108.096 172.92 109.835C173.024 126.11 173.009 142.389 172.964 158.664C172.949 164.137 169.011 167.965 163.494 167.98C151.168 168.01 138.837 167.99 126.511 167.99H126.516ZM162.814 107.273C160.231 102.687 157.927 98.4853 155.479 94.3731C155.121 93.7749 154.068 93.2765 153.333 93.2715C135.475 93.2117 117.617 93.2067 99.764 93.2864C98.9397 93.2864 97.7925 94.0142 97.3455 94.7469C95.1456 98.3458 93.1244 102.054 91.0684 105.738C90.8201 106.182 90.7257 106.71 90.5321 107.278H162.814V107.273ZM126.362 126.05C130.916 126.05 135.465 126.075 140.019 126.04C143.307 126.015 145.164 124.256 145.124 121.295C145.09 118.419 143.277 116.654 140.163 116.644C131.06 116.609 121.953 116.614 112.85 116.644C109.711 116.654 107.908 118.399 107.884 121.27C107.859 124.28 109.671 126.02 112.954 126.04C117.423 126.07 121.893 126.045 126.362 126.045V126.05Z" fill="#FFF3DC"/>
</svg>
