<svg width="252" height="252" viewBox="0 0 252 252" fill="none" xmlns="http://www.w3.org/2000/svg">
<circle cx="126" cy="126" r="126" fill="#EFE1C5"/>
<circle cx="126" cy="126" r="126" fill="#EFE1C5"/>
<mask id="mask0_147_49" style="mask-type:alpha" maskUnits="userSpaceOnUse" x="0" y="0" width="252" height="252">
<circle cx="126" cy="126" r="126" fill="#EFE1C5"/>
</mask>
<g mask="url(#mask0_147_49)">
<path d="M64 -38C-26.5613 -38 -100 35.4387 -100 126L228 126C228 35.4387 154.587 -38 64 -38Z" fill="#FFC329"/>
<path d="M-86 126L-86 252L166 252L166 126L-86 126Z" fill="#8D3232"/>
<path d="M16.5 56C-22.4361 56 -54 87.5639 -54 126.5C-54 165.436 -22.4361 197 16.5 197C55.4361 197 87 165.436 87 126.5C87 87.5639 55.4361 56 16.5 56Z" fill="#206012"/>
<path d="M273 248H180V341H273V248Z" fill="#FE862F"/>
<path d="M180 248H273V341L180 248Z" fill="#8D3232"/>
<path d="M87 248V341H180V248H87Z" fill="#206012"/>
<path d="M87 341V248H180L87 341Z" fill="#8D3232"/>
<path d="M236 -27H137V252H236V-27Z" fill="#FE862F"/>
<path d="M244.135 35.3069C247.905 19.4817 238.132 3.59646 222.307 -0.173637C206.482 -3.94374 190.596 5.82894 186.826 21.6542C183.056 37.4794 192.829 53.3645 208.654 57.1346C224.479 60.9047 240.364 51.1321 244.135 35.3069Z" fill="#FFC329"/>
<path d="M247.359 129.376C258.862 117.872 258.862 99.2219 247.359 87.7186C235.855 76.2153 217.205 76.2153 205.701 87.7186C194.198 99.2219 194.198 117.872 205.701 129.376C217.205 140.879 235.855 140.879 247.359 129.376Z" fill="#FFC329"/>
<path d="M255.224 207.933C258.994 192.108 249.221 176.223 233.396 172.453C217.571 168.683 201.686 178.455 197.916 194.28C194.146 210.106 203.918 225.991 219.743 229.761C235.569 233.531 251.454 223.758 255.224 207.933Z" fill="#FFC329"/>
<path d="M252 61V248H159V154.195C159 102.754 200.667 61 252 61Z" fill="#8D3232"/>
<path d="M201.953 188.016C201.953 188.016 204.136 232.248 178.773 257.199C153.411 282.164 110.051 279.95 110.051 279.95C110.051 279.95 107.808 237.283 133.171 212.317C158.534 187.352 201.953 188.002 201.953 188.002V188.016Z" fill="#FFC329"/>
</g>
<g clip-path="url(#clip0_147_49)">
<path d="M78 104.099C78 103.575 78 103.05 78 102.526C78.1166 102.233 78.2392 101.939 78.3518 101.643C79.0792 99.7557 79.6307 97.7773 80.5557 95.9919C87.3353 82.9192 105.524 81.1792 114.687 92.6991C115.555 93.7908 116.29 94.9869 117.126 96.1929C117.324 95.8638 117.509 95.5683 117.683 95.2648C122.781 86.3579 133.814 82.5901 143.288 86.5983C150.508 89.6526 154.441 95.3633 156.074 102.814C156.38 104.209 155.813 105.39 154.623 106.223C153.135 107.266 151.488 107.066 149.925 105.559C147.662 103.38 145.051 101.803 142.052 100.863C140.026 100.229 137.959 99.8582 135.796 99.9055C135.832 100.024 135.832 100.067 135.85 100.077C136.073 100.211 136.302 100.339 136.528 100.469C143.829 104.696 147.474 111.015 147.223 119.432C147.061 124.833 144.719 129.395 141.19 133.391C140.226 134.483 138.526 134.751 137.198 134.132C135.765 133.464 135.026 132.083 135.257 130.4C136.291 122.904 133.638 116.781 128.214 111.721C126.487 110.109 124.491 108.877 122.125 107.995C123.156 119.475 124.174 130.814 125.18 142.016H136.996C139.044 132.333 149.893 127.29 158.792 131.74C162.887 133.787 165.496 137.173 166.607 141.597C168.046 147.327 166.374 152.236 162.322 156.368C163.324 157.781 164.296 159.097 165.202 160.461C165.538 160.965 165.905 161.115 166.49 161.109C169.35 161.08 172.211 161.091 175.071 161.101C175.496 161.101 175.934 161.107 176.342 161.206C178.065 161.623 179.188 163.247 178.974 164.96C178.743 166.814 177.263 167.998 175.136 167.998C145.744 168 116.351 168 86.9597 167.996C86.5348 167.996 86.0979 167.99 85.6888 167.892C83.9534 167.47 82.894 165.911 83.0916 164.13C83.2794 162.433 84.6491 161.139 86.4221 161.113C89.4798 161.07 92.5376 161.119 95.5933 161.068C95.9946 161.062 96.548 160.786 96.7615 160.461C99.7184 155.968 103.375 152.165 107.779 149.063C108.093 148.84 108.356 148.36 108.399 147.973C108.645 145.794 108.814 143.605 109.012 141.419C109.908 131.537 110.807 121.655 111.7 111.772C111.811 110.554 111.888 109.333 111.987 108.05C111.754 108.109 111.655 108.119 111.57 108.158C104.581 111.352 100.307 116.728 98.9614 124.246C98.5779 126.394 98.9021 128.67 98.9218 130.887C98.9357 132.384 98.1075 133.675 96.7555 134.195C95.3522 134.735 93.8421 134.424 92.8795 133.318C90.1874 130.232 88.1457 126.78 87.3531 122.727C85.843 114.998 87.9974 108.412 93.8559 103.116C95.1941 101.906 96.7891 100.975 98.2972 99.8936C95.4609 99.8779 92.7451 100.479 90.1341 101.586C87.776 102.585 85.7639 104.079 83.9139 105.839C82.4769 107.204 80.4786 107.216 79.1306 105.886C78.6444 105.405 78.3716 104.702 78 104.099ZM157.131 161.05C150.03 152.817 141.222 148.647 130.557 148.783C120.253 148.915 111.754 153.081 104.913 161.05H157.131ZM157.311 151.434C160.371 148.472 161 144.513 159.059 141.027C157.384 138.022 153.281 136.426 149.644 137.364C146.521 138.17 143.983 141.053 143.948 143.89C148.842 145.575 153.291 148.099 157.313 151.434H157.311ZM117.179 130.737C117.108 130.737 117.039 130.733 116.968 130.731C116.551 135.358 116.136 139.985 115.707 144.744C116.406 144.497 116.976 144.251 117.569 144.103C118.207 143.944 118.357 143.616 118.288 142.978C118.088 141.159 117.974 139.33 117.81 137.506C117.608 135.247 117.391 132.993 117.179 130.735V130.737ZM140.032 116.117C139.831 112.249 135.957 107.447 132.82 106.515C135.907 109.279 138.251 112.47 140.032 116.117ZM141.586 93.6213C139.05 91.4813 132.478 91.4537 129.309 93.5524C133.488 92.7464 137.439 92.6676 141.586 93.6213ZM92.8637 93.3928C96.7733 92.7563 100.691 92.7839 104.612 93.3928C100.707 91.4754 96.7931 91.5148 92.8637 93.3928ZM101.319 106.505C97.985 107.551 94.3599 112.44 94.1959 116.056C96.0499 112.34 98.3486 109.236 101.319 106.505Z" fill="#FFF3DC"/>
</g>
<defs>
<clipPath id="clip0_147_49">
<rect width="101" height="83" fill="white" transform="translate(78 85)"/>
</clipPath>
</defs>
</svg>
