<svg width="100" height="209" viewBox="0 0 100 209" fill="none" xmlns="http://www.w3.org/2000/svg">
<mask id="mask0_124_34" style="mask-type:alpha" maskUnits="userSpaceOnUse" x="0" y="0" width="100" height="209">
<rect width="99.9565" height="209" fill="#D9D9D9"/>
</mask>
<g mask="url(#mask0_124_34)">
<path d="M2.79597 20.9699C-45.8385 20.9699 -85.2776 60.409 -85.2776 109.043L90.8696 109.043C90.8696 60.409 51.4445 20.9699 2.79597 20.9699Z" fill="#FFC329"/>
<path d="M-85.2776 109.043L-85.2776 197.117L90.8696 197.117L90.8696 109.043L-85.2776 109.043Z" fill="#FE862F"/>
<path d="M3.14548 60.1138C-24.0707 60.1138 -46.1338 82.1769 -46.1338 109.393C-46.1338 136.609 -24.0707 158.672 3.14547 158.672C30.3617 158.672 52.4247 136.609 52.4247 109.393C52.4248 82.1769 30.3617 60.1138 3.14548 60.1138Z" fill="#FFF3DC"/>
</g>
</svg>
