<svg width="1415" height="232" viewBox="0 0 1415 232" fill="none" xmlns="http://www.w3.org/2000/svg">
<rect width="1415" height="220" fill="#8D3232"/>
<mask id="mask0_516_2" style="mask-type:alpha" maskUnits="userSpaceOnUse" x="0" y="23" width="100" height="209">
<rect y="23" width="99.9565" height="209" fill="#D9D9D9"/>
</mask>
<g mask="url(#mask0_516_2)">
<path d="M2.79597 43.9699C-45.8385 43.9699 -85.2776 83.409 -85.2776 132.043L90.8696 132.043C90.8696 83.409 51.4445 43.9699 2.79597 43.9699Z" fill="#FFC329"/>
<path d="M-85.2776 132.043L-85.2776 220.117L90.8696 220.117L90.8696 132.043L-85.2776 132.043Z" fill="#FE862F"/>
<path d="M3.14548 83.1138C-24.0707 83.1138 -46.1338 105.177 -46.1338 132.393C-46.1338 159.609 -24.0707 181.672 3.14547 181.672C30.3617 181.672 52.4247 159.609 52.4247 132.393C52.4248 105.177 30.3617 83.1138 3.14548 83.1138Z" fill="#FFF3DC"/>
</g>
<path d="M1415 109H1363.56V220H1415V109Z" fill="#FE862F"/>
<path d="M1405.35 138.847C1407.44 130.076 1402.02 121.272 1393.25 119.183C1384.48 117.093 1375.68 122.509 1373.59 131.28C1371.5 140.051 1376.92 148.854 1385.69 150.944C1394.46 153.033 1403.26 147.617 1405.35 138.847Z" fill="#FFC329"/>
<path d="M1401 197.883C1407.37 191.508 1407.37 181.171 1401 174.796C1394.62 168.421 1384.28 168.421 1377.91 174.796C1371.53 181.171 1371.53 191.508 1377.91 197.883C1384.28 204.259 1394.62 204.259 1401 197.883Z" fill="#FFC329"/>
<path d="M1363.64 109.563C1363.64 109.563 1364.85 134.077 1350.79 147.906C1336.74 161.742 1312.7 160.514 1312.7 160.514C1312.7 160.514 1311.46 136.868 1325.52 123.031C1339.57 109.195 1363.64 109.555 1363.64 109.555V109.563Z" fill="#FFB22B"/>
<path d="M1363.56 145.098V220H1312.12V182.427C1312.12 161.822 1335.17 145.098 1363.56 145.098Z" fill="#206012"/>
</svg>
