<svg width="103" height="111" viewBox="0 0 103 111" fill="none" xmlns="http://www.w3.org/2000/svg">
<path d="M103 0H51.5609V111H103V0Z" fill="#FE862F"/>
<path d="M93.3508 29.8466C95.4403 21.076 90.0241 12.2721 81.2535 10.1826C72.4829 8.09319 63.679 13.5094 61.5896 22.28C59.5001 31.0507 64.9163 39.8545 73.6869 41.9439C82.4575 44.0334 91.2614 38.6173 93.3508 29.8466Z" fill="#FFC329"/>
<path d="M88.9957 88.8832C95.371 82.5079 95.3711 72.1714 88.9957 65.796C82.6204 59.4207 72.2839 59.4207 65.9085 65.796C59.5332 72.1714 59.5332 82.5078 65.9086 88.8832C72.2839 95.2585 82.6204 95.2585 88.9957 88.8832Z" fill="#FFC329"/>
<path d="M51.6382 0.56327C51.6382 0.56327 52.848 25.0774 38.7915 38.9055C24.7351 52.7418 0.704201 51.5145 0.704201 51.5145C0.704201 51.5145 -0.538487 27.8676 13.5179 14.0313C27.5744 0.195072 51.6382 0.55508 51.6382 0.55508V0.56327Z" fill="#FFB22B"/>
<path d="M51.561 36.0977V111H0.121948V73.4265C0.121948 52.8222 23.1684 36.0977 51.561 36.0977Z" fill="#206012"/>
</svg>
