<svg width="150" height="301" viewBox="0 0 150 301" fill="none" xmlns="http://www.w3.org/2000/svg">
<g opacity="0.5">
<path d="M149.5 225.75H74.25V301H149.5V225.75Z" fill="#FE862F"/>
<path d="M74.25 225.75H149.5V301L74.25 225.75Z" fill="#8D3232"/>
<path d="M-1 225.75L-1 301H74.25V225.75H-1Z" fill="#206012"/>
<path d="M-1 301V225.75H74.25L-1 301Z" fill="#8D3232"/>
<path d="M149.5 0H74.25V225.75H149.5V0Z" fill="#FE862F"/>
<path d="M135.111 43.5751C138.161 30.7703 130.254 17.917 117.449 14.8664C104.644 11.8159 91.7911 19.7233 88.7406 32.5282C85.6901 45.333 93.5974 58.1862 106.402 61.2368C119.207 64.2873 132.06 56.3799 135.111 43.5751Z" fill="#FFC329"/>
<path d="M128.753 129.766C138.06 120.459 138.06 105.368 128.753 96.0599C119.445 86.7521 104.354 86.7522 95.0462 96.0599C85.7384 105.368 85.7384 120.459 95.0462 129.766C104.354 139.074 119.445 139.074 128.753 129.766Z" fill="#FFC329"/>
<path d="M135.117 193.33C138.167 180.526 130.26 167.672 117.455 164.622C104.65 161.571 91.7968 169.479 88.7462 182.283C85.6957 195.088 93.6031 207.941 106.408 210.992C119.213 214.043 132.066 206.135 135.117 193.33Z" fill="#FFC329"/>
<path d="M74.25 74.4409V225.75H-1V149.848C-1 108.226 32.7145 74.4409 74.25 74.4409Z" fill="#8D3232"/>
<path d="M74.2119 0.822387C74.2119 0.822387 75.9781 36.6122 55.4562 56.8007C34.9344 77.0012 -0.149931 75.2093 -0.149931 75.2093C-0.149931 75.2093 -1.96421 40.6858 18.5577 20.4853C39.0796 0.28483 74.2119 0.810429 74.2119 0.810429V0.822387Z" fill="#206012"/>
</g>
</svg>
