<svg width="147" height="294" viewBox="0 0 147 294" fill="none" xmlns="http://www.w3.org/2000/svg">
<g opacity="0.5">
<path d="M147 220.5H73.5V294H147V220.5Z" fill="#FE862F"/>
<path d="M73.5 220.5H147V294L73.5 220.5Z" fill="#8D3232"/>
<path d="M0 220.5L0 294H73.5V220.5H0Z" fill="#206012"/>
<path d="M0 294V220.5H73.5L0 294Z" fill="#8D3232"/>
<path d="M147 0H73.5V220.5H147V0Z" fill="#FE862F"/>
<path d="M132.946 42.5617C135.925 30.0547 128.202 17.5003 115.695 14.5207C103.188 11.5411 90.6333 19.2646 87.6537 31.7717C84.6741 44.2787 92.3976 56.8331 104.905 59.8127C117.412 62.7923 129.966 55.0688 132.946 42.5617Z" fill="#FFC329"/>
<path d="M126.735 126.749C135.826 117.657 135.826 102.917 126.735 93.826C117.644 84.7346 102.904 84.7347 93.8124 93.826C84.7211 102.917 84.7212 117.657 93.8125 126.749C102.904 135.84 117.644 135.84 126.735 126.749Z" fill="#FFC329"/>
<path d="M132.951 188.834C135.931 176.327 128.207 163.773 115.7 160.793C103.193 157.814 90.6387 165.537 87.6591 178.044C84.6795 190.551 92.403 203.106 104.91 206.085C117.417 209.065 129.971 201.341 132.951 188.834Z" fill="#FFC329"/>
<path d="M73.5 72.7097V220.5H0V146.363C0 105.709 32.9305 72.7097 73.5 72.7097Z" fill="#8D3232"/>
<path d="M73.4629 0.803249C73.4629 0.803249 75.1881 35.7608 55.1434 55.4798C35.0988 75.2105 0.830409 73.4603 0.830409 73.4603C0.830409 73.4603 -0.941678 39.7396 19.103 20.0089C39.1476 0.278194 73.4629 0.79157 73.4629 0.79157V0.803249Z" fill="#206012"/>
</g>
</svg>
