<svg width="74" height="75" viewBox="0 0 74 75" fill="none" xmlns="http://www.w3.org/2000/svg">
<path d="M73.7269 37.4514C73.7269 58.1352 57.4025 74.9028 37.2654 74.9028C17.1283 74.9028 0.803955 58.1352 0.803955 37.4514C0.803955 16.7676 17.1283 0 37.2654 0C57.4025 0 73.7269 16.7676 73.7269 37.4514Z" fill="#ECE0C7"/>
<path d="M57.9227 37.0085C57.9227 25.4256 48.781 16.0356 37.5043 16.0356C26.2276 16.0356 17.0859 25.4254 17.0859 37.0085C17.0859 47.4765 24.5526 56.1532 34.3139 57.7265V43.0709H29.1296V37.0085H34.3139V32.3879C34.3139 27.1316 37.3623 24.2282 42.0262 24.2282C44.2602 24.2282 46.5969 24.6378 46.5969 24.6378V29.7991H44.0222C41.4856 29.7991 40.6947 31.4158 40.6947 33.0744V37.0085H46.3576L45.4523 43.0709H40.6947V57.7265C50.456 56.1532 57.9227 47.4767 57.9227 37.0085Z" fill="#232323"/>
<path d="M45.4512 43.0703L46.3565 37.0079H40.6935V33.0738C40.6935 31.415 41.4846 29.7984 44.0211 29.7984H46.5957V24.6372C46.5957 24.6372 44.2591 24.2275 42.025 24.2275C37.3612 24.2275 34.3128 27.131 34.3128 32.3873V37.0079H29.1284V43.0703H34.3128V57.7259C35.3682 57.8958 36.4349 57.981 37.5032 57.9807C38.5714 57.981 39.6381 57.8958 40.6935 57.7259V43.0703H45.4512Z" fill="#ECE0C7"/>
</svg>
