<svg width="130" height="327" viewBox="0 0 130 327" fill="none" xmlns="http://www.w3.org/2000/svg">
<mask id="mask0_147_1076" style="mask-type:alpha" maskUnits="userSpaceOnUse" x="0" y="0" width="130" height="327">
<rect width="130" height="327" fill="#D9D9D9"/>
</mask>
<g mask="url(#mask0_147_1076)">
<path d="M-1.03323 161.036C-1.03323 161.036 1.79092 226.909 -31.0227 264.068C-63.8363 301.226 -119.935 297.95 -119.935 297.95C-119.935 297.95 -122.835 234.407 -90.0219 197.227C-57.2083 160.047 -1.03323 161.014 -1.03323 161.014V161.036Z" fill="#FFC329"/>
<path d="M-119.939 24.0244C-119.939 24.0244 -122.763 89.8971 -89.9496 127.055C-57.1361 164.235 -1.03781 160.937 -1.03781 160.937C-1.03781 160.937 1.86314 97.3946 -30.9504 60.2148C-63.764 23.0349 -119.939 24.0024 -119.939 24.0024V24.0244Z" fill="#FE862F"/>
<path d="M-0.9109 161.036C-0.9109 161.036 -3.75746 226.909 29.3166 264.067C62.3906 301.246 118.934 297.948 118.934 297.948C118.934 297.948 121.858 234.406 88.784 197.226C55.71 160.047 -0.9109 161.014 -0.9109 161.014V161.036Z" fill="#206012"/>
<path d="M118.939 24.0244C118.939 24.0244 121.785 89.8971 88.7111 127.055C55.6371 164.235 -0.906283 160.937 -0.906283 160.937C-0.906283 160.937 -3.83026 97.3946 29.2438 60.2148C62.3178 23.0349 118.939 24.0024 118.939 24.0024V24.0244Z" fill="#8D3232"/>
</g>
</svg>
