<svg width="119" height="275" viewBox="0 0 119 275" fill="none" xmlns="http://www.w3.org/2000/svg">
<path d="M118.967 137.337C118.967 137.337 121.791 203.211 88.9773 240.369C56.1637 277.527 0.0654876 274.251 0.0654876 274.251C0.0654876 274.251 -2.83547 210.708 29.9781 173.528C62.7917 136.348 118.967 137.315 118.967 137.315V137.337Z" fill="#FFC329"/>
<path d="M0.0609062 0.325645C0.0609062 0.325645 -2.76324 66.1984 30.0504 103.356C62.8639 140.536 118.962 137.238 118.962 137.238C118.962 137.238 121.863 73.6959 89.0496 36.516C56.236 -0.663785 0.0609062 0.303637 0.0609062 0.303637V0.325645Z" fill="#FE862F"/>
<path d="M119.089 137.337C119.089 137.337 116.243 203.21 149.317 240.368C182.391 277.548 238.934 274.25 238.934 274.25C238.934 274.25 241.858 210.707 208.784 173.528C175.71 136.348 119.089 137.315 119.089 137.315V137.337Z" fill="#206012"/>
<path d="M238.939 0.325645C238.939 0.325645 241.785 66.1984 208.711 103.356C175.637 140.536 119.094 137.238 119.094 137.238C119.094 137.238 116.17 73.6959 149.244 36.516C182.318 -0.663785 238.939 0.303637 238.939 0.303637V0.325645Z" fill="#8D3232"/>
</svg>
