<svg width="147" height="318" viewBox="0 0 147 318" fill="none" xmlns="http://www.w3.org/2000/svg">
<mask id="mask0_699_6" style="mask-type:alpha" maskUnits="userSpaceOnUse" x="0" y="0" width="147" height="318">
<rect width="147" height="318" fill="#D9D9D9"/>
</mask>
<g mask="url(#mask0_699_6)">
<path d="M146.967 155.337C146.967 155.337 149.791 221.211 116.977 258.369C84.1637 295.527 28.0655 292.251 28.0655 292.251C28.0655 292.251 25.1645 228.708 57.9781 191.528C90.7917 154.348 146.967 155.315 146.967 155.315V155.337Z" fill="#FFC329"/>
<path d="M28.0609 18.3256C28.0609 18.3256 25.2368 84.1984 58.0504 121.356C90.8639 158.536 146.962 155.238 146.962 155.238C146.962 155.238 149.863 91.6959 117.05 54.516C84.236 17.3362 28.0609 18.3036 28.0609 18.3036V18.3256Z" fill="#FE862F"/>
<path d="M147.089 155.337C147.089 155.337 144.243 221.21 177.317 258.368C210.391 295.548 266.934 292.25 266.934 292.25C266.934 292.25 269.858 228.707 236.784 191.528C203.71 154.348 147.089 155.315 147.089 155.315V155.337Z" fill="#206012"/>
<path d="M266.939 18.3256C266.939 18.3256 269.785 84.1984 236.711 121.356C203.637 158.536 147.094 155.238 147.094 155.238C147.094 155.238 144.17 91.6959 177.244 54.516C210.318 17.3362 266.939 18.3036 266.939 18.3036V18.3256Z" fill="#8D3232"/>
</g>
</svg>
