<svg width="301" height="42" viewBox="0 0 301 42" fill="none" xmlns="http://www.w3.org/2000/svg">
<path d="M33.2141 33.5625C33.2141 35.9837 31.6225 37.5433 28.958 39.1598C26.7985 40.3134 23.9027 41.1751 20.2145 41.1751C10.1038 41.1751 0 32.7578 0 20.5876C0 8.41733 10.223 0 20.0463 0C23.9097 0 26.8616 0.925764 29.0211 2.07941C31.5173 3.63896 33.2211 5.24837 33.2211 7.61263C33.2211 10.3828 31.0615 11.8783 28.909 11.8783C27.149 11.8783 25.9571 11.0095 25.3891 10.6676C24.9895 10.4967 23.3417 8.99415 20.2215 8.99415C14.486 8.99415 9.77421 14.1855 9.77421 20.5876C9.77421 26.9896 14.3738 32.181 20.3337 32.181C23.2856 32.181 24.9895 30.6784 25.3891 30.5075C25.9571 30.1585 27.0929 29.2969 28.909 29.2969C31.0685 29.2969 33.2211 30.7994 33.2211 33.5625H33.2141Z" fill="#8D3232"/>
<path d="M71.1751 23.1367C71.1751 33.7688 62.5929 41.1179 53.8634 41.1179C45.1339 41.1179 36.5517 33.7617 36.5517 23.1367C36.5517 12.5118 45.1339 5.14844 53.8634 5.14844C62.5929 5.14844 71.1751 12.5047 71.1751 23.1367ZM45.0848 23.1367C45.0848 29.1827 49.0534 33.2133 53.8634 33.2133C58.6734 33.2133 62.5929 29.1827 62.5929 23.1367C62.5929 17.0908 58.7715 13.0103 53.8634 13.0103C48.9552 13.0103 45.0848 17.0908 45.0848 23.1367Z" fill="#8D3232"/>
<path d="M104.158 34.474C104.158 36.589 102.77 37.9492 100.435 39.3592C98.5485 40.3633 96.0173 41.1252 92.799 41.1252C83.9713 41.1252 75.1437 33.769 75.1437 23.1441C75.1437 12.5191 84.0695 5.15576 92.6517 5.15576C96.0243 5.15576 98.6046 5.96046 100.491 6.97168C102.671 8.33184 104.165 9.74185 104.165 11.807C104.165 14.2282 102.279 15.5314 100.393 15.5314C98.857 15.5314 97.8123 14.7766 97.3145 14.4704C96.9639 14.3208 95.5265 13.0105 92.799 13.0105C87.7857 13.0105 83.6698 17.5468 83.6698 23.1369C83.6698 28.7271 87.6875 33.2634 92.8971 33.2634C95.4774 33.2634 96.9639 31.9531 97.3145 31.8035C97.8123 31.5044 98.8009 30.7424 100.393 30.7424C102.279 30.7424 104.165 32.0528 104.165 34.4669L104.158 34.474Z" fill="#8D3232"/>
<path d="M141.018 23.1367C141.018 33.7688 132.436 41.1179 123.706 41.1179C114.977 41.1179 106.395 33.7617 106.395 23.1367C106.395 12.5118 114.977 5.14844 123.706 5.14844C132.436 5.14844 141.018 12.5047 141.018 23.1367ZM114.928 23.1367C114.928 29.1827 118.896 33.2133 123.706 33.2133C128.516 33.2133 132.436 29.1827 132.436 23.1367C132.436 17.0908 128.614 13.0103 123.706 13.0103C118.798 13.0103 114.928 17.0908 114.928 23.1367Z" fill="#8D3232"/>
<path d="M174.996 34.474C174.996 36.589 173.608 37.9492 171.273 39.3592C169.387 40.3633 166.856 41.1252 163.638 41.1252C154.81 41.1252 145.982 33.769 145.982 23.1441C145.982 12.5191 154.908 5.15576 163.49 5.15576C166.863 5.15576 169.443 5.96046 171.329 6.97168C173.51 8.33184 174.996 9.74185 174.996 11.807C174.996 14.2282 173.11 15.5314 171.224 15.5314C169.689 15.5314 168.644 14.7766 168.146 14.4704C167.795 14.3208 166.358 13.0105 163.63 13.0105C158.617 13.0105 154.501 17.5468 154.501 23.1369C154.501 28.7271 158.519 33.2634 163.729 33.2634C166.309 33.2634 167.795 31.9531 168.146 31.8035C168.644 31.5044 169.632 30.7424 171.224 30.7424C173.11 30.7424 174.996 32.0528 174.996 34.4669V34.474Z" fill="#8D3232"/>
<path d="M208.477 37.0449C208.477 39.16 206.892 40.926 204.754 40.926C203.464 40.926 202.426 40.3207 201.781 39.4163L193.549 28.7344H189.826V37.0449C189.826 39.3095 188.038 41.1753 185.808 41.1753C183.579 41.1753 181.692 39.3095 181.692 37.0449V10.091C181.692 7.4205 183.579 5.50488 186.208 5.50488H195.288C203.029 5.50488 208.035 10.8458 208.035 17.1909C208.035 21.5776 205.602 25.4017 201.584 27.3671L207.488 34.524C207.986 35.229 208.484 36.0337 208.484 37.0449H208.477ZM189.826 21.6773H194.839C197.665 21.6773 200.147 20.9224 200.147 17.1909C200.147 13.4593 197.665 12.5549 194.839 12.5549H189.826V21.6701V21.6773Z" fill="#8D3232"/>
<path d="M237.098 33.5698C239.083 33.5698 240.716 35.1792 240.716 37.1446C240.716 39.1101 239.083 40.7694 237.098 40.7694H220.93C218.3 40.7694 216.414 38.8537 216.414 36.1833V10.091C216.414 7.4205 218.3 5.50488 220.93 5.50488H236.601C238.585 5.50488 240.219 7.11429 240.219 9.02991C240.219 11.0951 238.585 12.7045 236.601 12.7045H224.548V19.605H232.036C234.02 19.605 235.605 21.2144 235.605 23.0303C235.605 24.9459 234.02 26.5055 232.036 26.5055H224.548V33.5555H237.098V33.5698Z" fill="#8D3232"/>
<path d="M267.655 8.43134C268.847 9.6918 269.492 10.7457 269.492 12.0062C269.492 13.872 268.006 15.282 266.12 15.282C264.977 15.282 263.687 14.577 262.943 13.7723C261.555 12.7112 260.763 12.4121 259.325 12.4121C256.843 12.4121 255.602 13.7224 255.602 15.3817C255.602 16.3858 255.953 17.7459 258.68 18.807L260.068 19.3126C268.602 22.5386 271.28 25.7645 271.28 30.3435C271.28 37.6 264.135 41.125 258.337 41.125C254.719 41.125 250.897 39.8147 248.219 37.1443C247.623 36.3894 246.431 34.9295 246.431 33.0139C246.431 31.3547 247.525 29.5387 249.754 29.5387C251.493 29.5387 252.678 30.7494 253.576 31.8033C255.364 33.6192 257.299 33.8186 258.337 33.8186C260.076 33.8186 262.95 33.2632 262.95 30.3435C262.95 28.378 261.856 27.1674 258.14 25.7075L256.605 25.1521C251.395 23.1367 247.476 20.6158 247.476 15.225C247.476 8.97967 252.587 5.14844 258.982 5.14844C263.147 5.14844 265.58 6.45875 267.662 8.42422L267.655 8.43134Z" fill="#8D3232"/>
<path d="M300.343 9.18629C300.343 11.2016 298.71 12.811 296.774 12.811H290.625V36.8381C290.625 39.2095 288.739 41.1679 286.607 41.1679C284.476 41.1679 282.492 39.2024 282.492 36.8381V12.811H276.392C274.456 12.811 272.774 11.2016 272.774 9.18629C272.774 7.17097 274.463 5.51172 276.392 5.51172H296.781C298.717 5.51172 300.35 7.12112 300.35 9.18629H300.343Z" fill="#8D3232"/>
</svg>
