<svg width="100" height="197" viewBox="0 0 100 197" fill="none" xmlns="http://www.w3.org/2000/svg">
<mask id="mask0_97_1256" style="mask-type:alpha" maskUnits="userSpaceOnUse" x="0" y="0" width="100" height="209">
<rect width="99.9565" height="209" fill="#D9D9D9"/>
</mask>
<g mask="url(#mask0_97_1256)">
<path d="M2.79603 20.9699C-45.8385 20.9699 -85.2775 60.409 -85.2775 109.043L90.8696 109.043C90.8696 60.409 51.4446 20.9699 2.79603 20.9699Z" fill="#FFC329"/>
<path d="M-85.2776 109.043L-85.2776 197.117L90.8696 197.117L90.8696 109.043L-85.2776 109.043Z" fill="#8D3232"/>
<path d="M3.14554 60.1138C-24.0706 60.1138 -46.1337 82.1769 -46.1337 109.393C-46.1337 136.609 -24.0707 158.672 3.14553 158.672C30.3617 158.672 52.4248 136.609 52.4248 109.393C52.4248 82.1769 30.3617 60.1138 3.14554 60.1138Z" fill="#EFE1C5"/>
</g>
</svg>
