<svg width="59" height="120" viewBox="0 0 59 120" fill="none" xmlns="http://www.w3.org/2000/svg">
<path d="M60 90H30V120H60V90Z" fill="#FE862F"/>
<path d="M30 90H60V120L30 90Z" fill="#8D3232"/>
<path d="M0 90L0 120H30L30 90H0Z" fill="#206012"/>
<path d="M0 120V90H30L0 120Z" fill="#8D3232"/>
<path d="M60 0H30V90H60V0Z" fill="#FE862F"/>
<path d="M54.2633 17.372C55.4794 12.2671 52.327 7.14287 47.2221 5.92671C42.1172 4.71055 36.9929 7.86302 35.7768 12.9679C34.5606 18.0728 37.713 23.1971 42.818 24.4132C47.9229 25.6294 53.0471 22.477 54.2633 17.372Z" fill="#FFC329"/>
<path d="M51.7287 51.734C55.4394 48.0233 55.4394 42.007 51.7287 38.2962C48.018 34.5855 42.0016 34.5855 38.2909 38.2963C34.5802 42.007 34.5802 48.0233 38.2909 51.734C42.0016 55.4448 48.0179 55.4448 51.7287 51.734Z" fill="#FFC329"/>
<path d="M54.6886 76.6474C55.9047 71.5425 52.7523 66.4183 47.6474 65.2021C42.5425 63.9859 37.4182 67.1384 36.2021 72.2433C34.9859 77.3482 38.1384 82.4725 43.2433 83.6886C48.3482 84.9048 53.4724 81.7523 54.6886 76.6474Z" fill="#FFC329"/>
<path d="M30 29.6775V90.0001H0V59.7402C0 43.1466 13.441 29.6775 30 29.6775Z" fill="#8D3232"/>
<path d="M29.9847 0.32779C29.9847 0.32779 30.6889 14.5962 22.5074 22.6447C14.3259 30.6981 0.338838 29.9837 0.338838 29.9837C0.338838 29.9837 -0.384463 16.2202 7.79702 8.16682C15.9785 0.113481 29.9847 0.323022 29.9847 0.323022V0.32779Z" fill="#206012"/>
</svg>
