<svg width="560" height="202" viewBox="0 0 560 202" fill="none" xmlns="http://www.w3.org/2000/svg">
<path d="M-3 0H563V202H-3V0Z" fill="#FFB22B"/>
<mask id="mask0_516_3" style="mask-type:alpha" maskUnits="userSpaceOnUse" x="0" y="5" width="100" height="209">
<rect y="5" width="99.9565" height="209" fill="#D9D9D9"/>
</mask>
<g mask="url(#mask0_516_3)">
<path d="M2.79603 25.9699C-45.8385 25.9699 -85.2775 65.409 -85.2775 114.043L90.8696 114.043C90.8696 65.409 51.4446 25.9699 2.79603 25.9699Z" fill="#FFC329"/>
<path d="M-85.2776 114.043L-85.2776 202.117L90.8696 202.117L90.8696 114.043L-85.2776 114.043Z" fill="#8D3232"/>
<path d="M3.14554 65.1138C-24.0706 65.1138 -46.1337 87.1769 -46.1337 114.393C-46.1337 141.609 -24.0707 163.672 3.14553 163.672C30.3617 163.672 52.4248 141.609 52.4248 114.393C52.4248 87.1769 30.3617 65.1138 3.14554 65.1138Z" fill="#EFE1C5"/>
</g>
<path d="M561 172H531V202H561V172Z" fill="#FE862F"/>
<path d="M531 172H561V202L531 172Z" fill="#8D3232"/>
<path d="M501 172V202H531V172H501Z" fill="#206012"/>
<path d="M501 202V172H531L501 202Z" fill="#8D3232"/>
<path d="M561 82H531V172H561V82Z" fill="#FE862F"/>
<path d="M555.263 99.372C556.479 94.2671 553.327 89.1429 548.222 87.9267C543.117 86.7105 537.993 89.863 536.777 94.9679C535.561 100.073 538.713 105.197 543.818 106.413C548.923 107.629 554.047 104.477 555.263 99.372Z" fill="#FFC329"/>
<path d="M552.729 133.734C556.439 130.023 556.439 124.007 552.729 120.296C549.018 116.586 543.002 116.586 539.291 120.296C535.58 124.007 535.58 130.023 539.291 133.734C543.002 137.445 549.018 137.445 552.729 133.734Z" fill="#FFC329"/>
<path d="M555.689 158.647C556.905 153.543 553.752 148.418 548.647 147.202C543.542 145.986 538.418 149.138 537.202 154.243C535.986 159.348 539.138 164.472 544.243 165.689C549.348 166.905 554.472 163.752 555.689 158.647Z" fill="#FFC329"/>
<path d="M531 111.677V172H501V141.74C501 125.147 514.441 111.677 531 111.677Z" fill="#8D3232"/>
<path d="M530.985 82.3278C530.985 82.3278 531.689 96.5962 523.507 104.645C515.326 112.698 501.339 111.984 501.339 111.984C501.339 111.984 500.616 98.2202 508.797 90.1668C516.979 82.1135 530.985 82.323 530.985 82.323V82.3278Z" fill="#206012"/>
</svg>
