<svg width="525" height="74" viewBox="0 0 525 74" fill="none" xmlns="http://www.w3.org/2000/svg">
<path d="M58.1841 59.8305C58.1841 64.1467 55.4062 66.9269 50.7561 69.8086C46.987 71.8652 41.933 73.4012 35.4963 73.4012C17.8502 73.4012 0.216339 58.396 0.216339 36.7006C0.216339 15.0052 18.0582 0 35.2026 0C41.9453 0 47.0971 1.65032 50.8662 3.70688C55.2227 6.48703 58.1963 9.35605 58.1963 13.5707C58.1963 18.509 54.4272 21.1749 50.6704 21.1749C47.5989 21.1749 45.5185 19.6261 44.5273 19.0168C43.8298 18.7121 40.9541 16.0335 35.5085 16.0335C25.4984 16.0335 17.275 25.288 17.275 36.7006C17.275 48.1132 25.3027 57.3677 35.7043 57.3677C40.8562 57.3677 43.8298 54.6891 44.5273 54.3844C45.5185 53.7624 47.501 52.2263 50.6704 52.2263C54.4395 52.2263 58.1963 54.9049 58.1963 59.8305H58.1841Z" fill="#FA7333"/>
<path d="M124.436 41.2453C124.436 60.1987 109.458 73.2997 94.2227 73.2997C78.9874 73.2997 64.009 60.186 64.009 41.2453C64.009 22.3047 78.9874 9.17833 94.2227 9.17833C109.458 9.17833 124.436 22.292 124.436 41.2453ZM78.9017 41.2453C78.9017 52.0232 85.828 59.2085 94.2227 59.2085C102.617 59.2085 109.458 52.0232 109.458 41.2453C109.458 30.4675 102.789 23.1934 94.2227 23.1934C85.6567 23.1934 78.9017 30.4675 78.9017 41.2453Z" fill="#FA7333"/>
<path d="M182 61.4554C182 65.2258 179.577 67.6505 175.502 70.1641C172.211 71.954 167.793 73.3124 162.176 73.3124C146.769 73.3124 131.363 60.1987 131.363 41.258C131.363 22.3174 146.941 9.19102 161.919 9.19102C167.805 9.19102 172.308 10.6255 175.6 12.4282C179.406 14.8529 182.013 17.3665 182.013 21.0479C182.013 25.3642 178.721 27.6873 175.429 27.6873C172.749 27.6873 170.926 26.3417 170.057 25.7958C169.445 25.5292 166.936 23.1934 162.176 23.1934C153.426 23.1934 146.243 31.2799 146.243 41.2453C146.243 51.2108 153.255 59.2973 162.347 59.2973C166.851 59.2973 169.445 56.9615 170.057 56.6949C170.926 56.1617 172.651 54.8034 175.429 54.8034C178.721 54.8034 182.013 57.1392 182.013 61.4427L182 61.4554Z" fill="#FA7333"/>
<path d="M246.331 41.2453C246.331 60.1987 231.353 73.2997 216.118 73.2997C200.882 73.2997 185.904 60.186 185.904 41.2453C185.904 22.3047 200.882 9.17833 216.118 9.17833C231.353 9.17833 246.331 22.292 246.331 41.2453ZM200.797 41.2453C200.797 52.0232 207.723 59.2085 216.118 59.2085C224.512 59.2085 231.353 52.0232 231.353 41.2453C231.353 30.4675 224.684 23.1934 216.118 23.1934C207.552 23.1934 200.797 30.4675 200.797 41.2453Z" fill="#FA7333"/>
<path d="M305.633 61.4554C305.633 65.2258 303.21 67.6505 299.135 70.1641C295.843 71.954 291.426 73.3124 285.809 73.3124C270.402 73.3124 254.995 60.1987 254.995 41.258C254.995 22.3174 270.573 9.19102 285.552 9.19102C291.438 9.19102 295.941 10.6255 299.233 12.4282C303.039 14.8529 305.633 17.3665 305.633 21.0479C305.633 25.3642 302.341 27.6873 299.049 27.6873C296.369 27.6873 294.546 26.3417 293.677 25.7958C293.065 25.5292 290.557 23.1934 285.796 23.1934C277.047 23.1934 269.864 31.2799 269.864 41.2453C269.864 51.2108 276.876 59.2973 285.968 59.2973C290.471 59.2973 293.065 56.9615 293.677 56.6949C294.546 56.1617 296.272 54.8034 299.049 54.8034C302.341 54.8034 305.633 57.1392 305.633 61.4427V61.4554Z" fill="#FA7333"/>
<path d="M364.066 66.038C364.066 69.8084 361.3 72.9567 357.568 72.9567C355.316 72.9567 353.505 71.8776 352.379 70.2654L338.013 51.2232H331.515V66.038C331.515 70.075 328.394 73.401 324.503 73.401C320.611 73.401 317.32 70.075 317.32 66.038V17.9883C317.32 13.2278 320.611 9.81287 325.2 9.81287H341.047C354.557 9.81287 363.295 19.334 363.295 30.645C363.295 38.465 359.048 45.2821 352.037 48.7858L362.34 61.5441C363.209 62.8009 364.078 64.2354 364.078 66.038H364.066ZM331.515 38.6427H340.264C345.196 38.6427 349.528 37.2971 349.528 30.645C349.528 23.9929 345.196 22.3807 340.264 22.3807H331.515V38.63V38.6427Z" fill="#FA7333"/>
<path d="M414.018 59.843C417.481 59.843 420.333 62.712 420.333 66.2158C420.333 69.7195 417.481 72.6774 414.018 72.6774H385.799C381.21 72.6774 377.918 69.2625 377.918 64.502V17.9883C377.918 13.2278 381.21 9.81287 385.799 9.81287H413.149C416.612 9.81287 419.464 12.6819 419.464 16.0968C419.464 19.7783 416.612 22.6473 413.149 22.6473H392.113V34.9485H405.183C408.646 34.9485 411.412 37.8175 411.412 41.0547C411.412 44.4696 408.646 47.2498 405.183 47.2498H392.113V59.8176H414.018V59.843Z" fill="#FA7333"/>
<path d="M467.348 15.0306C469.428 17.2776 470.554 19.1564 470.554 21.4034C470.554 24.7294 467.96 27.243 464.668 27.243C462.673 27.243 460.422 25.9862 459.125 24.5517C456.702 22.6602 455.319 22.127 452.81 22.127C448.478 22.127 446.312 24.4628 446.312 27.4207C446.312 29.2107 446.924 31.6354 451.684 33.5269L454.107 34.4282C469 40.179 473.675 45.9297 473.675 54.0925C473.675 67.0284 461.205 73.3124 451.085 73.3124C444.77 73.3124 438.101 70.9765 433.426 66.216C432.386 64.8703 430.306 62.2679 430.306 58.853C430.306 55.8951 432.215 52.658 436.106 52.658C439.141 52.658 441.209 54.8161 442.776 56.6949C445.896 59.9321 449.274 60.2875 451.085 60.2875C454.119 60.2875 459.137 59.2973 459.137 54.0925C459.137 50.5887 457.228 48.4306 450.742 45.8282L448.062 44.838C438.97 41.2453 432.129 36.7514 432.129 27.1414C432.129 16.0081 441.05 9.17833 452.21 9.17833C459.479 9.17833 463.726 11.5142 467.36 15.0179L467.348 15.0306Z" fill="#FA7333"/>
<path d="M524.398 16.3764C524.398 19.969 521.547 22.838 518.169 22.838H507.437V65.6702C507.437 69.8976 504.145 73.3887 500.425 73.3887C496.705 73.3887 493.242 69.8849 493.242 65.6702V22.838H482.596C479.218 22.838 476.281 19.969 476.281 16.3764C476.281 12.7838 479.23 9.8259 482.596 9.8259H518.181C521.559 9.8259 524.41 12.6949 524.41 16.3764H524.398Z" fill="#FA7333"/>
</svg>
