<svg width="60" height="180" viewBox="0 0 60 180" fill="none" xmlns="http://www.w3.org/2000/svg">
<g opacity="0.5">
<path d="M60 135H15V180H60V135Z" fill="#FE862F"/>
<path d="M15 135H60V180L15 135Z" fill="#8D3232"/>
<path d="M-30 135L-30 180H15V135H-30Z" fill="#206012"/>
<path d="M-30 180V135H15L-30 180Z" fill="#8D3232"/>
<path d="M60 0H15V135H60V0Z" fill="#FE862F"/>
<path d="M51.3953 26.0582C53.2195 18.4008 48.4908 10.7145 40.8335 8.89022C33.1761 7.06598 25.4897 11.7947 23.6655 19.4521C21.8413 27.1094 26.5699 34.7958 34.2273 36.62C41.8847 38.4442 49.571 33.7156 51.3953 26.0582Z" fill="#FFC329"/>
<path d="M47.5929 77.6011C53.159 72.035 53.159 63.0106 47.5929 57.4445C42.0268 51.8783 33.0023 51.8784 27.4362 57.4445C21.8701 63.0106 21.8701 72.035 27.4362 77.6011C33.0024 83.1672 42.0268 83.1672 47.5929 77.6011Z" fill="#FFC329"/>
<path d="M51.3986 115.613C53.2228 107.955 48.4941 100.269 40.8368 98.4449C33.1794 96.6206 25.493 101.349 23.6688 109.007C21.8446 116.664 26.5733 124.35 34.2306 126.175C41.888 127.999 49.5743 123.27 51.3986 115.613Z" fill="#FFC329"/>
<path d="M15 44.5161V135H-30V89.6102C-30 64.7198 -9.83849 44.5161 15 44.5161Z" fill="#8D3232"/>
<path d="M14.9772 0.491791C14.9772 0.491791 16.0335 21.8943 3.76124 33.9672C-8.51098 46.0472 -29.4916 44.9757 -29.4916 44.9757C-29.4916 44.9757 -30.5766 24.3304 -18.3043 12.2503C-6.03213 0.170329 14.9772 0.48464 14.9772 0.48464V0.491791Z" fill="#206012"/>
</g>
</svg>
