<svg width="60" height="180" viewBox="0 0 60 180" fill="none" xmlns="http://www.w3.org/2000/svg">
<g opacity="0.5">
<path d="M90 135H45V180H90V135Z" fill="#FE862F"/>
<path d="M45 135H90V180L45 135Z" fill="#8D3232"/>
<path d="M0 135L0 180H45V135H0Z" fill="#206012"/>
<path d="M0 180V135H45L0 180Z" fill="#8D3232"/>
<path d="M90 0H45V135H90V0Z" fill="#FE862F"/>
<path d="M81.3951 26.0582C83.2194 18.4008 78.4907 10.7145 70.8333 8.89022C63.176 7.06598 55.4896 11.7947 53.6654 19.4521C51.8411 27.1094 56.5698 34.7958 64.2272 36.62C71.8845 38.4442 79.5709 33.7156 81.3951 26.0582Z" fill="#FFC329"/>
<path d="M77.5929 77.6011C83.159 72.035 83.159 63.0106 77.5929 57.4445C72.0268 51.8783 63.0023 51.8784 57.4362 57.4445C51.8701 63.0106 51.8701 72.035 57.4362 77.6011C63.0024 83.1672 72.0268 83.1672 77.5929 77.6011Z" fill="#FFC329"/>
<path d="M81.3986 115.613C83.2228 107.955 78.4941 100.269 70.8368 98.4449C63.1794 96.6206 55.493 101.349 53.6688 109.007C51.8446 116.664 56.5733 124.35 64.2306 126.175C71.888 127.999 79.5743 123.27 81.3986 115.613Z" fill="#FFC329"/>
<path d="M45 44.5161V135H0V89.6102C0 64.7198 20.1615 44.5161 45 44.5161Z" fill="#8D3232"/>
<path d="M44.9772 0.491795C44.9772 0.491795 46.0335 21.8943 33.7612 33.9672C21.489 46.0472 0.508379 44.9757 0.508379 44.9757C0.508379 44.9757 -0.576572 24.3304 11.6957 12.2503C23.9679 0.170332 44.9772 0.484644 44.9772 0.484644V0.491795Z" fill="#206012"/>
</g>
</svg>
