<svg width="73" height="75" viewBox="0 0 73 75" fill="none" xmlns="http://www.w3.org/2000/svg">
<ellipse cx="36.4615" cy="37.4514" rx="36.4615" ry="37.4514" fill="#ECE0C7"/>
<path d="M47.9707 17.7554H26.2761C20.9901 17.7554 16.705 22.1569 16.705 27.5864V49.8699C16.705 55.2994 20.9901 59.7009 26.2761 59.7009H47.9707C53.2567 59.7009 57.5418 55.2994 57.5418 49.8699V27.5864C57.5418 22.1569 53.2567 17.7554 47.9707 17.7554Z" fill="url(#paint0_radial_37_9)"/>
<path d="M47.9707 17.7554H26.2761C20.9901 17.7554 16.705 22.1569 16.705 27.5864V49.8699C16.705 55.2994 20.9901 59.7009 26.2761 59.7009H47.9707C53.2567 59.7009 57.5418 55.2994 57.5418 49.8699V27.5864C57.5418 22.1569 53.2567 17.7554 47.9707 17.7554Z" fill="#232323"/>
<path d="M37.1249 22.3438C32.7927 22.3438 32.2489 22.3632 30.5475 22.4427C28.8492 22.5227 27.69 22.7988 26.6758 23.204C25.6265 23.6224 24.7365 24.1823 23.8499 25.0933C22.9625 26.0042 22.4174 26.9183 22.0087 27.9956C21.6131 29.0377 21.344 30.2289 21.2676 31.9724C21.1915 33.7202 21.1716 34.2789 21.1716 38.7289C21.1716 43.1789 21.1907 43.7357 21.2679 45.4833C21.3461 47.2276 21.6149 48.4183 22.009 49.4601C22.4168 50.5379 22.9619 51.452 23.8488 52.3627C24.7352 53.2742 25.6252 53.8354 26.6737 54.2538C27.6887 54.659 28.8481 54.9351 30.546 55.0151C32.2476 55.0945 32.7909 55.114 37.123 55.114C41.4557 55.114 41.9977 55.0945 43.6991 55.0151C45.3974 54.9351 46.5579 54.659 47.5729 54.2538C48.6217 53.8354 49.5104 53.2742 50.3967 52.3627C51.2841 51.452 51.829 50.5379 52.2379 49.4606C52.63 48.4183 52.8992 47.2273 52.979 45.4836C53.0554 43.736 53.0754 43.1789 53.0754 38.7289C53.0754 34.2789 53.0554 33.7205 52.979 31.9727C52.8992 30.2284 52.63 29.0378 52.2379 27.9961C51.829 26.9183 51.2841 26.0042 50.3967 25.0933C49.5095 24.182 48.6221 23.6221 47.5719 23.2041C46.555 22.7988 45.3952 22.5225 43.6969 22.4427C41.9953 22.3632 41.4536 22.3438 37.12 22.3438H37.1249ZM35.6939 25.2965C36.1187 25.2958 36.5926 25.2965 37.1249 25.2965C41.3842 25.2965 41.8889 25.3122 43.5709 25.3907C45.1262 25.4638 45.9704 25.7307 46.5327 25.955C47.2772 26.2519 47.8079 26.607 48.3659 27.1806C48.9242 27.7541 49.2697 28.3002 49.5596 29.0649C49.7779 29.6416 50.0381 30.5087 50.1089 32.1062C50.1853 33.8336 50.2019 34.3523 50.2019 38.7251C50.2019 43.0979 50.1853 43.6169 50.1089 45.344C50.0378 46.9415 49.7779 47.8086 49.5596 48.3855C49.2705 49.1502 48.9242 49.6947 48.3659 50.2679C47.8076 50.8413 47.2775 51.1962 46.5327 51.4933C45.971 51.7186 45.1262 51.9848 43.5709 52.0579C41.8892 52.1364 41.3842 52.1534 37.1249 52.1534C32.8654 52.1534 32.3605 52.1364 30.6791 52.0579C29.1237 51.9842 28.2796 51.7173 27.7168 51.493C26.9725 51.1959 26.4406 50.841 25.8823 50.2675C25.324 49.6941 24.9785 49.1493 24.6886 48.3842C24.4703 47.8073 24.2101 46.9402 24.1393 45.3427C24.0628 43.6154 24.0475 43.0966 24.0475 38.721C24.0475 34.3456 24.0628 33.8295 24.1393 32.1022C24.2104 30.5046 24.4703 29.6375 24.6886 29.06C24.9779 28.2953 25.324 27.7492 25.8825 27.1757C26.4408 26.6022 26.9725 26.2471 27.7169 25.9496C28.2793 25.7243 29.1237 25.458 30.6791 25.3846C32.1506 25.3163 32.7209 25.2958 35.6939 25.2924V25.2965ZM45.64 28.017C44.5832 28.017 43.7258 28.8969 43.7258 29.9826C43.7258 31.0681 44.5832 31.9488 45.64 31.9488C46.6968 31.9488 47.5542 31.0681 47.5542 29.9826C47.5542 28.8971 46.6968 28.017 45.64 28.017ZM37.1249 30.3144C32.6009 30.3144 28.933 34.082 28.933 38.7289C28.933 43.3758 32.6009 47.1416 37.1249 47.1416C41.649 47.1416 45.3157 43.3758 45.3157 38.7289C45.3157 34.0821 41.649 30.3144 37.1249 30.3144ZM37.1249 33.2671C40.0615 33.2671 42.4423 35.7123 42.4423 38.7289C42.4423 41.7452 40.0615 44.1907 37.1249 44.1907C34.1882 44.1907 31.8077 41.7452 31.8077 38.7289C31.8077 35.7123 34.1882 33.2671 37.1249 33.2671Z" fill="#ECE0C7"/>
<defs>
<radialGradient id="paint0_radial_37_9" cx="0" cy="0" r="1" gradientUnits="userSpaceOnUse" gradientTransform="translate(27.5522 62.9316) rotate(-90) scale(41.5712 37.6425)">
<stop stop-color="#232323"/>
<stop offset="0.1" stop-color="#FFDD55"/>
<stop offset="0.5" stop-color="#FF543E"/>
<stop offset="1" stop-color="#C837AB"/>
</radialGradient>
</defs>
</svg>
