<svg width="252" height="252" viewBox="0 0 252 252" fill="none" xmlns="http://www.w3.org/2000/svg">
<circle cx="126" cy="126" r="126" fill="#EFE1C5"/>
<mask id="mask0_124_6" style="mask-type:alpha" maskUnits="userSpaceOnUse" x="0" y="0" width="252" height="252">
<circle cx="126" cy="126" r="126" fill="#EFE1C5"/>
</mask>
<g mask="url(#mask0_124_6)">
<path d="M16 1.18729e-05C-53.5776 5.79024e-06 -110 56.4224 -110 126L142 126C142 56.4224 85.5977 1.79573e-05 16 1.18729e-05Z" fill="#FFC329"/>
<path d="M-110 126L-110 252L142 252L142 126L-110 126Z" fill="#8D3232"/>
<path d="M16.5 56C-22.4361 56 -54 87.5639 -54 126.5C-54 165.436 -22.4361 197 16.5 197C55.4361 197 87 165.436 87 126.5C87 87.5639 55.4361 56 16.5 56Z" fill="#FE862F"/>
<path d="M273 248H180V341H273V248Z" fill="#FE862F"/>
<path d="M180 248H273V341L180 248Z" fill="#8D3232"/>
<path d="M87 248V341H180V248H87Z" fill="#206012"/>
<path d="M87 341V248H180L87 341Z" fill="#8D3232"/>
<path d="M273 -31H180V248H273V-31Z" fill="#FE862F"/>
<path d="M255.217 22.8536C258.987 7.02842 249.214 -8.85678 233.389 -12.6269C217.564 -16.397 201.679 -6.62431 197.909 9.20091C194.138 25.0261 203.911 40.9112 219.736 44.6813C235.561 48.4514 251.447 38.6789 255.217 22.8536Z" fill="#FFC329"/>
<path d="M247.359 129.376C258.862 117.872 258.862 99.2219 247.359 87.7186C235.855 76.2153 217.205 76.2153 205.701 87.7186C194.198 99.2219 194.198 117.872 205.701 129.376C217.205 140.879 235.855 140.879 247.359 129.376Z" fill="#FFC329"/>
<path d="M255.224 207.933C258.994 192.108 249.221 176.223 233.396 172.453C217.571 168.683 201.686 178.455 197.916 194.28C194.146 210.106 203.918 225.991 219.743 229.761C235.569 233.531 251.454 223.758 255.224 207.933Z" fill="#FFC329"/>
<path d="M180 61V248H87V154.195C87 102.754 128.667 61 180 61Z" fill="#8D3232"/>
<path d="M179.953 -29.9836C179.953 -29.9836 182.136 14.2483 156.773 39.1989C131.411 64.1643 88.0506 61.9497 88.0506 61.9497C88.0506 61.9497 85.8084 19.2827 111.171 -5.68263C136.534 -30.648 179.953 -29.9984 179.953 -29.9984V-29.9836Z" fill="#206012"/>
</g>
<g clip-path="url(#clip0_124_6)">
<path d="M157.378 101.946C153.822 101.16 149.871 99.9695 145.833 99.4571C136.658 98.2906 127.546 98.764 118.77 101.995C101.743 108.262 94.0223 125.012 100.332 142.031C101.363 144.813 102.852 147.424 104.72 150.035C105.45 147.219 106.155 144.398 106.914 141.587C109.439 132.289 113.53 123.977 121.606 118.169C126.238 114.836 131.253 112.327 136.931 111.107C135.855 111.825 134.795 112.566 133.7 113.25C120.993 121.191 114.392 132.933 112.3 147.556C111.176 155.404 110.942 163.247 111.74 171.134C111.823 171.93 111.75 172.745 111.75 173.716C104.944 171.573 98.9212 168.157 93.8325 163.306C78.7465 148.927 73.4876 131.357 79.3303 111.38C85.0903 91.6822 98.858 79.7197 118.935 75.864C146.772 70.5149 174.035 90.6914 177.562 118.76C181.011 146.238 163.653 170.412 136.376 175.497C131.224 176.459 125.761 175.761 120.439 175.707C119.855 175.702 118.877 174.99 118.755 174.453C117.51 168.865 116.401 163.242 115.238 157.561C119.081 157.073 122.292 156.839 125.43 156.238C131.278 155.121 136.332 152.285 140.949 148.576C146.276 144.296 148.538 138.409 149.691 131.947C150.465 127.638 150.796 123.221 151.9 119.004C153.35 113.479 155.369 108.101 157.378 101.951V101.946Z" fill="#FFF3DC"/>
</g>
<defs>
<clipPath id="clip0_124_6">
<rect width="101" height="101" fill="white" transform="translate(77 75)"/>
</clipPath>
</defs>
</svg>
