<svg width="96" height="96" viewBox="0 0 96 96" fill="none" xmlns="http://www.w3.org/2000/svg">
<mask id="mask0_788_24" style="mask-type:alpha" maskUnits="userSpaceOnUse" x="0" y="0" width="96" height="96">
<rect width="96" height="96" fill="#D9D9D9"/>
</mask>
<g mask="url(#mask0_788_24)">
<circle cx="44" cy="47" r="43" fill="#8D3232"/>
<g clip-path="url(#clip0_788_24)">
<path d="M57.2469 63.0909C57.6335 62.3496 57.9839 61.7293 58.2888 61.0873C59.1076 59.3675 59.8337 57.6151 59.9295 55.6843C59.9531 55.2098 59.8777 54.7275 59.8211 54.2529C59.8069 54.1289 59.6906 54.0172 59.5555 53.7893C59.4989 53.9955 59.4502 54.0715 59.4675 54.1273C59.8321 55.2951 59.6074 56.4365 59.2993 57.567C58.8153 59.3458 58.0389 61.0067 57.1117 62.6009C56.3762 63.8648 55.6392 65.1287 54.8958 66.3879C54.154 67.6456 54.5296 68.604 55.9582 68.9638C56.5617 69.1158 57.1919 69.1592 57.8488 69.2584C57.6382 70.0044 57.1667 70.5658 56.5585 71.0248C55.8702 71.5428 55.086 71.8436 54.2342 71.9925C53.4075 72.1367 53.0099 73.0486 53.516 73.703C53.9403 74.2504 53.9576 74.8335 53.7329 75.4166C53.5631 75.8586 53.285 76.2665 53.0131 76.6604C52.9235 76.7891 52.6988 76.893 52.5353 76.8914C51.8501 76.8868 51.1712 76.7937 50.6447 76.3083C50.3776 76.0618 50.1937 76.054 49.9407 76.3161C49.3513 76.9225 48.586 76.9426 47.8316 76.8C47.5582 76.7488 47.2863 76.4976 47.0914 76.2727C46.862 76.0059 46.708 75.9966 46.5052 76.2649C46.2035 76.6681 45.7698 76.8294 45.292 76.9085C44.8205 76.986 44.3852 76.8821 44.1055 76.5022C43.8006 76.0881 43.5759 76.1409 43.2003 76.4309C42.8702 76.6852 42.4349 76.8077 41.9917 76.9287C42.163 75.9408 42.4286 75.0196 43.062 74.2737C43.5287 73.7247 44.2343 73.7418 44.9023 73.7542C45.1223 73.7588 45.3439 73.7759 45.5623 73.7635C46.0951 73.734 46.6357 73.7387 47.1574 73.6456C49.1549 73.289 50.1607 71.8979 49.7568 69.8307C49.4661 68.3466 48.9349 66.909 48.5326 65.4435C47.9212 63.2212 47.3319 60.9942 47.8348 58.6619C47.9165 58.2835 48.0407 57.9144 48.1287 57.536C48.1522 57.4336 48.1145 57.3189 48.1035 57.2088C48.0108 57.2878 47.8552 57.3545 47.8332 57.4491C47.6619 58.2044 47.4545 58.958 47.379 59.7241C47.2486 61.0454 47.3916 62.3574 47.7436 63.6446C47.8081 63.8803 47.8474 64.1222 47.8976 64.3579C47.8332 64.3796 47.7986 64.4029 47.7798 64.3951C45.1521 63.2646 42.8529 61.6983 41.1839 59.3613C38.1665 55.1338 38.6019 50.2224 42.2856 46.4137C43.4674 45.1916 44.808 44.1759 46.2507 43.2764C46.7237 42.9818 47.159 42.6096 47.5519 42.2141C47.9087 41.8559 48.0595 41.386 47.8474 40.8835C47.6965 40.5253 47.3837 40.4028 47.0066 40.3981C46.4345 40.3919 46.0542 40.6633 45.831 41.1704C45.7619 41.3255 45.6975 41.4821 45.6236 41.6574C45.1396 41.5612 44.9054 41.2402 44.7624 40.8246C44.6414 40.4726 44.5439 40.1097 44.3805 39.7778C44.3113 39.6382 44.1008 39.5654 43.9546 39.463C43.8839 39.5995 43.7833 39.7313 43.7503 39.8755C43.6654 40.2462 43.612 40.6246 43.5334 41.0696C43.0148 40.7254 42.6203 40.3702 42.482 39.8414C42.3752 39.4304 42.2322 39.4661 41.943 39.6739C41.4322 40.043 40.8382 40.1655 40.2017 40.1671C40.3384 39.8197 40.4736 39.4971 40.5867 39.1668C40.6229 39.0614 40.6418 38.8566 40.5977 38.8334C40.4909 38.7791 40.3274 38.7667 40.2111 38.8055C39.3499 39.1001 38.4636 39.1482 37.5803 39.1187C37.6856 38.4938 37.7564 37.8843 37.8978 37.2903C37.9811 36.9337 38.1555 36.5956 38.319 36.2622C38.495 35.9024 38.77 35.8233 39.1755 35.9505C40.4626 36.3521 41.7544 36.7383 43.0588 37.0794C43.568 37.2128 44.1149 37.2159 44.6807 37.2826C44.5282 37.737 44.8347 37.875 45.2103 37.9634C45.9866 38.1464 46.7614 38.3356 47.5393 38.5108C47.6729 38.5403 47.8238 38.5294 47.9621 38.5108C48.498 38.4364 48.6897 38.1371 48.4383 37.6656C48.1475 37.1182 47.8206 36.5832 47.456 36.0792C46.9626 35.3984 46.3937 34.7687 45.9065 34.0848C45.5937 33.646 45.3706 33.1451 45.1003 32.6767C45.0311 32.5573 44.9337 32.4519 44.8488 32.3418C44.7372 32.4395 44.5597 32.5201 44.5251 32.6395C44.4229 33.0055 44.3758 33.387 44.2815 33.9034C43.7362 33.4614 43.2505 33.0613 42.7571 32.669C42.6439 32.579 42.5088 32.5185 42.3846 32.4441C42.3595 32.5852 42.3045 32.7295 42.317 32.8675C42.3438 33.19 42.4003 33.5095 42.4569 33.9112C41.8393 33.5452 41.2609 33.2335 40.9372 32.6473C40.5977 32.0316 40.1168 31.5881 39.5479 31.1725C39.0419 30.8018 38.6459 30.2776 38.2357 29.7922C38.0927 29.6232 37.9591 29.3642 37.9748 29.158C38.0235 28.5346 37.7171 28.0585 37.4703 27.5296C37.068 26.6658 37.6574 25.6702 38.6977 25.3182C39.6281 25.0034 40.5317 25.4469 40.7722 26.3696C40.8351 26.61 40.7816 26.8845 40.758 27.1404C40.7455 27.2831 40.6858 27.4226 40.6197 27.6615C41.3851 27.5513 42.0624 27.4614 42.7366 27.3544C44.2076 27.1202 45.6786 26.883 47.148 26.6348C48.377 26.427 49.0747 25.0949 48.575 23.71C49.4079 23.71 50.1968 23.6775 50.9811 23.7193C51.6631 23.755 52.2399 24.076 52.7302 24.549C53.0351 24.8437 53.3683 25.1957 53.8334 24.9832C54.3002 24.7692 54.3803 24.2947 54.3693 23.8248C54.3615 23.4852 54.3348 23.1455 54.3159 22.7889C54.3395 22.7796 54.3913 22.7423 54.4196 22.7547C55.2761 23.1331 56.1483 23.4852 56.9781 23.9147C57.2799 24.0698 57.5046 24.3955 57.7215 24.6762C57.9949 25.0298 58.0562 25.0484 58.3171 24.6669C58.677 24.138 59.04 23.6092 58.9929 22.8586C59.9908 23.1595 60.907 23.4914 61.6048 24.228C62.0967 24.7475 62.642 25.2174 63.3995 25.0267C63.9087 24.8995 64.3739 24.5847 64.8407 24.321C64.9774 24.2435 65.0497 24.0559 65.1518 23.9178C65.2115 23.9473 65.2697 23.9768 65.3294 24.0062C65.276 24.3241 65.2508 24.6514 65.1628 24.96C64.8957 25.8998 64.3503 26.6751 63.596 27.2908C63.2534 27.57 63.2722 27.7514 63.5378 28.0786C64.5185 29.2851 64.6253 30.6979 64.5091 32.1479L64.3063 32.2906C63.7563 31.7369 63.2062 31.1833 62.5965 30.5676C62.6436 30.7506 62.6389 30.9243 62.7238 31.022C63.0396 31.3865 63.3461 31.7742 63.728 32.0611C64.3598 32.5341 64.5971 33.1358 64.5389 33.8832C64.4839 34.5935 64.4226 35.3038 64.3566 36.014C64.3488 36.0978 64.2953 36.1784 64.2482 36.3025C63.7296 35.8946 63.2251 35.5255 62.7536 35.1192C62.1674 34.6152 61.9788 33.9158 61.7887 33.1978C61.6127 32.5356 61.2984 31.9075 61.0265 31.2733C60.9746 31.1538 60.8505 31.0484 60.7326 30.9786C60.6273 30.9166 60.4874 30.9119 60.3633 30.8809C60.3664 30.9957 60.3366 31.1259 60.379 31.2236C60.7577 32.089 60.7169 32.9791 60.5534 33.877C60.5409 33.9499 60.5016 34.0197 60.4639 34.119C60.0301 33.7731 59.5885 33.4723 59.2129 33.1063C58.8577 32.7605 58.5701 32.3464 58.259 31.9711C58.1301 32.6364 57.9981 33.325 57.8645 34.012C57.8111 34.0135 57.7592 34.0151 57.7058 34.0166C57.2893 33.5684 56.8713 33.1187 56.4391 32.6535C56.3039 33.266 56.1798 33.8367 56.0541 34.409C56.0022 34.409 55.9519 34.409 55.9 34.409C55.7272 34.1779 55.5622 33.9406 55.3814 33.7158C55.2164 33.508 55.0357 33.3126 54.8628 33.1109C54.8125 33.1373 54.7622 33.1637 54.7119 33.19C54.7842 33.5173 54.8848 33.8429 54.921 34.1748C54.9571 34.5067 54.9288 34.8447 54.9288 35.1797C54.877 35.2061 54.8235 35.2324 54.7717 35.2572C54.2483 34.8184 53.7266 34.3811 53.1985 33.9391C52.8921 34.3842 52.5715 34.8494 52.2336 35.3379C51.8156 35.0774 51.3394 34.9021 51.0502 34.5671C50.7705 34.243 50.684 33.7576 50.4562 33.2086C50.3964 33.4397 50.3289 33.5591 50.3414 33.6677C50.4184 34.3113 50.6306 34.8618 51.3001 35.1564C51.5625 35.2712 51.7904 35.4868 51.9963 35.6946C52.2053 35.9039 52.3122 35.8729 52.4599 35.6372C52.6988 35.2572 52.9691 34.8975 53.2881 34.4415C53.7941 34.9223 54.2703 35.3767 54.7481 35.8264C54.7999 35.8745 54.9005 35.9567 54.9162 35.9443C54.9932 35.8853 55.0891 35.8062 55.1048 35.7209C55.1834 35.2635 55.24 34.8029 55.3186 34.2461C55.4411 34.409 55.5244 34.5036 55.5904 34.6106C55.845 35.02 55.9849 35.0277 56.2269 34.5951C56.4077 34.2725 56.5334 33.9205 56.6842 33.5808C57.2217 33.8398 57.2657 33.9019 57.5565 34.8385C58.1379 34.3361 58.2417 33.6289 58.5293 32.9186C59.1563 33.7096 60.2721 33.9561 60.5299 35.0665C60.94 34.0616 61.0249 33.0179 60.9479 31.9479C60.9982 31.9401 61.0485 31.9308 61.0988 31.923C61.2151 32.2937 61.3879 32.6566 61.4367 33.0365C61.5938 34.2477 62.1171 35.2216 63.1748 35.8853C63.4907 36.0838 63.5724 36.3459 63.6353 36.7165C63.7594 37.4408 64.0297 38.1417 64.2497 38.8489C64.3315 39.111 64.4446 39.3653 64.4682 39.6832C64.2073 39.463 63.9637 39.2164 63.6824 39.0288C63.2534 38.7434 62.8039 38.4845 62.3497 38.2394C61.5498 37.8099 60.9432 37.205 60.5519 36.3909C60.4937 36.2699 60.4214 36.1536 60.2737 35.8853C59.9484 36.4793 59.6812 36.9662 59.315 37.6315C58.7399 37.0794 58.215 36.5723 57.7278 36.104C57.7529 36.2916 57.8708 36.6188 57.8142 36.915C57.7576 37.219 57.5313 37.4919 57.3773 37.785C56.81 37.3027 56.2662 36.8406 55.724 36.38C55.6769 36.4312 55.6297 36.4808 55.581 36.532C55.7146 36.9879 56.2364 37.1042 56.5067 37.4408C56.7911 37.7959 57.0991 38.1324 57.4166 38.5C57.6838 37.9758 57.9274 37.4981 58.2071 36.9538C58.5576 37.2624 58.8781 37.5292 59.1783 37.8145C59.3968 38.0223 59.5413 38.0192 59.6734 37.7354C59.8431 37.371 60.0301 37.0143 60.2187 36.639C60.5487 37.0438 60.8017 37.4702 61.1632 37.7711C61.6394 38.1665 62.2067 38.4503 62.7175 38.8086C62.8621 38.9109 63.0491 39.1094 63.0365 39.249C62.9454 40.2927 63.2942 41.1689 63.981 41.9381C64.0093 41.9691 64.014 42.0218 64.0517 42.1273C62.0008 42.3661 60.6697 41.3488 59.6419 39.7577C59.5964 39.7654 59.5524 39.7747 59.5068 39.7825C59.4156 40.2012 59.3245 40.6215 59.2239 41.082C58.3485 40.3594 57.1306 40.0833 56.6607 38.7838C56.4187 39.1854 56.2584 39.4506 56.1342 39.6584C55.614 39.0443 55.1331 38.4271 54.5956 37.8626C54.2373 37.4873 54.1698 37.5385 53.9529 37.996C53.7894 38.3433 53.5836 38.6705 53.384 39.0319C52.9596 38.7248 52.5338 38.4969 52.221 38.165C51.9287 37.8548 51.7558 37.4346 51.5295 37.0639C51.4871 37.0763 51.4447 37.0887 51.4022 37.1027C51.4132 37.2376 51.3959 37.3818 51.4399 37.5044C51.6301 38.0471 51.9523 38.4783 52.4599 38.7977C52.7742 38.9962 53.0147 39.3048 53.3573 39.6274C53.67 39.1389 53.9969 38.6256 54.3411 38.0859C55.1048 38.6581 55.6077 39.3963 55.8545 40.4571C56.2081 40.1004 56.4454 39.8616 56.6748 39.6274C56.975 39.8957 57.3066 40.1779 57.6178 40.4803C57.6963 40.5563 57.7529 40.699 57.7482 40.8075C57.7215 41.3596 57.6712 41.9102 57.6288 42.4591C56.6497 41.7861 55.735 41.158 54.7512 40.4819C54.6365 41.172 54.5359 41.7892 54.4259 42.4452C53.9419 41.769 53.5254 41.1751 53.0964 40.5889C52.8575 40.2632 52.6736 40.2787 52.43 40.6354C52.0937 41.1255 51.6788 41.5628 51.2294 42.1056C51.0942 41.4899 51.0109 41.0262 50.8852 40.5749C50.8412 40.4183 50.6919 40.2911 50.5897 40.15C50.5064 40.2865 50.3964 40.4121 50.343 40.5594C50.1733 41.034 49.9674 41.4744 49.4566 41.7861C49.213 41.0247 48.9789 40.2973 48.6976 39.4196C48.6269 39.6646 48.5451 39.7949 48.5671 39.9034C48.652 40.3113 48.773 40.7114 48.8767 41.1162C48.949 41.3968 49.0496 41.6775 49.0747 41.9629C49.1015 42.2715 49.2555 42.3475 49.4598 42.1753C49.881 41.8218 50.2613 41.4217 50.684 41.0154V42.639C51.6788 42.2668 52.2132 41.5287 52.7789 40.7765C53.5443 41.4573 53.9262 42.3366 54.2515 43.3881C54.7952 42.6266 54.8518 41.8776 55.0341 41.0975C55.9519 41.8032 57.195 42.0389 57.4449 43.3881C58.0326 42.5832 58.0405 41.6853 58.1379 40.6943C58.4585 40.9549 58.7163 41.1658 58.9772 41.3736C59.1155 41.4837 59.26 41.5845 59.4015 41.6884C59.4565 41.5194 59.5225 41.3519 59.5649 41.1782C59.6121 40.9843 59.6404 40.7843 59.6859 40.53C59.7928 40.6152 59.8792 40.6664 59.9405 40.7393C60.9133 41.8869 62.1093 42.5599 63.673 42.4793C63.7783 42.4731 63.9527 42.5227 63.9873 42.5956C64.3205 43.3183 64.9774 43.6951 65.7302 44.1666C64.7511 44.4023 63.9009 44.5403 62.9642 44.0875V46.3578C61.7604 46.2338 60.6477 46.1035 59.7205 45.0784C59.4801 46.2477 58.6628 46.7037 57.7969 47.1472C57.4417 45.9221 56.5161 44.9156 56.4674 43.5711C56.4532 43.1865 56.1326 43.0764 55.8953 43.3834C55.6234 43.737 55.4616 44.1867 55.3091 44.6132C55.141 45.0846 55.0373 45.5778 54.9052 46.0616C54.8424 46.0663 54.7811 46.0709 54.7182 46.074C54.3081 45.4475 53.8994 44.8226 53.4468 44.1309C53.263 44.593 53.1309 45.0753 52.8858 45.494C52.6422 45.9128 52.287 46.2663 51.9208 46.7223C51.6678 45.8507 51.4541 45.1095 51.2388 44.3666C51.1964 44.3434 51.1539 44.3185 51.1115 44.2953C50.9088 45.6259 50.4907 46.7952 49.0417 47.1906C48.872 46.3951 48.6976 45.5793 48.5137 44.7171C47.9181 45.004 47.2879 45.3048 46.609 45.6321C47.0066 44.6256 47.3602 43.7308 47.7562 42.7259C47.5818 42.8158 47.3712 42.8561 47.3036 42.974C47.1449 43.2531 47.0003 43.5602 46.9469 43.8719C46.8306 44.5512 46.5288 45.0986 45.9741 45.5158C45.8861 45.5824 45.8279 45.6879 45.7038 45.8399C46.6875 46.0663 47.4215 45.6212 48.1947 45.2676C48.4681 46.1268 48.8846 46.927 48.553 47.8699C48.6049 47.8776 48.6567 47.8869 48.707 47.8947C49.202 47.5923 49.7489 47.3488 50.1764 46.972C50.596 46.6029 50.8962 46.1004 51.3205 45.5638C51.3865 46.1175 51.4478 46.637 51.5185 47.2371C52.5023 46.7797 53.0807 45.9748 53.5521 44.9203C53.8979 45.4956 54.1965 45.9779 54.4793 46.4695C54.6224 46.7192 54.7905 46.7006 54.8942 46.485C55.1457 45.9593 55.3893 45.4258 55.5747 44.8753C55.7146 44.4597 55.6863 43.9836 56.1232 43.6238C56.1688 43.8145 56.1908 43.9619 56.2395 44.0999C56.4548 44.7093 56.623 45.3452 56.9168 45.9174C57.2139 46.4943 57.5219 47.0402 57.4072 47.7753C58.281 47.1286 59.4156 46.8727 59.8101 45.8802C60.9589 46.2291 62.0684 46.5656 63.2785 46.9332V44.6365C65.1125 44.7031 66.0382 44.5605 66.4091 44.1557C65.8543 43.8192 65.3027 43.4842 64.7495 43.1492C64.7558 43.0888 64.7621 43.0283 64.7684 42.9678C65.1675 42.8887 65.5636 42.7677 65.9659 42.7383C67.3457 42.6344 68.7334 42.6204 70.1054 42.4653C72.3684 42.2095 74.6252 41.8916 76.8788 41.5597C79.3069 41.203 81.7318 40.8215 84.196 40.8975C85.6811 40.9425 87.1348 41.1642 88.5115 41.7721C89.4167 42.1722 90.2497 41.9303 90.762 41.0975C91.5619 39.798 91.7159 38.3899 91.1109 36.9926C90.5671 35.7364 89.3853 35.3441 88.1186 35.1937C86.2139 34.9657 84.361 35.3829 82.5034 35.6977C79.6023 36.1877 76.6934 36.4467 73.7954 35.7426C72.9028 35.5255 72.0541 35.1254 71.1866 34.8075C70.833 34.6773 70.4904 34.5098 70.129 34.4167C69.2505 34.1903 68.471 34.6493 68.2447 35.5131C68.1677 35.8093 68.1378 36.1179 68.0859 36.4234C67.1744 36.0404 66.5725 34.6462 66.8711 33.77C67.0094 33.3637 67.1996 32.9621 67.44 32.6069C67.638 32.3123 67.5925 32.1417 67.3882 31.8781C66.923 31.2764 66.4358 30.6715 66.0869 30.0032C64.9821 27.8894 65.3954 25.8858 67.1854 24.2776C68.8638 22.7702 70.8864 22.0259 73.0882 21.6847C77.157 21.0551 80.8439 22.1391 84.2086 24.304C86.338 25.6749 88.3182 27.2691 90.3707 28.7579C90.8767 29.1254 91.389 29.4836 91.9171 29.8186C92.1104 29.9411 92.3477 30.0171 92.5756 30.0559C93.2042 30.1629 93.3456 29.9923 93.1586 29.3999C92.9685 28.8013 93.1822 28.274 93.7338 27.984C94.3341 27.6677 95.0555 27.7995 95.4924 28.305C96.4086 29.3658 96.0409 31.1182 94.7349 31.647C93.2042 32.2673 91.7474 31.9944 90.4854 30.9786C89.4262 30.1272 88.4565 29.1688 87.4271 28.2787C87.0264 27.9328 86.5801 27.6366 86.1416 27.3373C86.0127 27.2489 85.8399 27.221 85.6198 27.2164C86.0835 28.1624 85.7 29.3518 86.6351 30.1365C84.8843 29.9163 83.6114 29.0696 82.8633 27.4149C82.4987 28.9393 81.7695 29.9551 80.0109 29.9706C80.8124 28.578 81.5448 27.2071 80.3394 25.7648C79.7139 25.0158 78.8433 24.6483 77.8532 24.4653C78.4032 25.8377 79.0036 27.1792 77.8846 28.5066C77.2403 29.2712 76.3382 29.5782 75.2648 29.8372C75.4141 29.5984 75.4958 29.4619 75.5823 29.3286C77.1318 26.9279 75.7599 24.1598 72.8682 23.8775C72.6702 23.8589 72.4014 23.9209 72.2741 24.0497C72.183 24.1427 72.2191 24.4358 72.2946 24.594C72.6765 25.388 72.4706 26.0533 71.6675 26.503C70.7749 25.3136 69.6103 25.1755 68.405 26.1184C67.4007 26.9031 67.2797 28.4151 68.1582 29.4123C68.3735 29.6573 68.6313 29.8651 68.878 30.0807C69.1436 30.3149 69.3385 30.2885 69.5601 29.9737C70.2327 29.0153 71.1458 28.4834 72.3653 28.5873C72.8163 28.626 73.2076 28.7842 73.4827 29.1967C73.1401 29.3472 72.8163 29.4573 72.524 29.6248C71.3139 30.3164 71.086 31.3368 71.8671 32.4891C71.9284 32.579 71.9928 32.6674 72.0604 32.7527C72.546 33.3699 72.5979 33.3637 72.9908 32.7108C73.3145 32.1727 73.6791 31.6734 74.3785 31.5958C74.4162 31.6579 74.4445 31.6842 74.4445 31.7106C74.468 32.9838 74.8421 33.4878 76.0977 33.8398C77.3393 34.1872 78.617 34.2523 79.8884 34.1035C81.9314 33.8646 83.9618 33.508 86.0064 33.2939C87.8845 33.097 89.7656 33.1373 91.4456 34.1748C93.1115 35.203 93.9695 36.715 93.9255 38.6535C93.8815 40.592 92.9952 42.0668 91.2115 42.9632C90.982 43.0779 90.7746 43.171 91.0496 43.4672C92.431 44.9497 93.0785 46.7688 93.4352 48.7011C93.9208 51.3312 93.5201 53.8714 92.431 56.2953C91.5713 58.2044 91.2287 60.2359 90.7698 62.2473C90.3864 63.9315 90.7023 65.4342 91.6091 66.8733C92.0114 67.5122 92.552 67.8395 93.2969 67.8968C93.902 67.9434 94.0355 68.1775 93.7542 68.7219C93.3503 69.505 92.695 70.0633 91.9784 70.5533C90.6394 71.4714 90.2858 72.8733 91.0873 74.2908C91.4315 74.8987 91.8558 75.4616 92.2345 76.0509C92.607 76.6294 92.4986 76.8558 91.7976 76.8977C91.0009 76.9442 90.2465 76.8511 89.7766 76.0835C89.7326 76.0121 89.6367 75.9718 89.5267 75.8881C89.1181 76.4293 88.7881 77.0403 87.9457 76.938C87.2244 76.8511 86.8001 76.3595 86.3019 75.8524C86.1023 76.0726 85.9467 76.268 85.7676 76.4371C85.0352 77.1349 84.2762 77.1024 83.6821 76.3022C83.3929 75.9129 83.2091 75.9362 82.8775 76.2448C82.3793 76.71 81.9927 76.8465 81.4552 76.8573C81.7224 75.9113 82.2504 75.1763 83.0456 74.6226C83.8581 74.0581 84.7869 73.8674 85.7566 73.7821C86.7576 73.6953 87.3203 73.0734 87.303 72.0855C87.2888 71.2791 87.2008 70.4712 87.237 69.6678C87.314 67.9697 86.4716 66.7679 85.1861 65.7986C84.702 65.4326 84.1881 65.0697 83.6318 64.8371C81.6391 64.0028 80.0329 62.6877 78.6704 61.0671C77.2073 59.3287 75.3057 58.5672 73.0725 58.392C70.0614 58.1563 67.2247 58.8216 64.4886 59.963C62.5493 60.7725 60.654 61.6844 58.7336 62.5373C58.2825 62.7373 57.8079 62.8831 57.2406 63.0909H57.2469ZM55.1567 30.0528C55.1818 30.0078 55.207 29.9644 55.2321 29.9194C54.9807 29.631 54.7308 29.3425 54.4071 28.9703C56.8508 29.6883 58.9002 29.7209 59.3339 29.1332C58.8813 28.6695 58.435 28.212 57.9258 27.6894C58.8451 27.6041 59.6404 27.5653 60.4246 27.449C61.4131 27.3032 62.3686 27.0318 63.0852 26.2781C63.2157 26.1401 63.2707 25.9323 63.3602 25.7571C63.3178 25.7354 63.2754 25.7137 63.2329 25.6919C63.1811 25.7199 63.1072 25.7338 63.0789 25.7772C62.5619 26.5806 61.7305 26.9124 60.8583 27.0427C59.7928 27.2024 58.7037 27.2117 57.624 27.2893C57.47 27.3001 57.3192 27.3311 57.151 27.3544C57.6948 27.9421 58.1914 28.4772 58.7556 29.0866C57.0284 29.4247 55.5182 29.2867 54.1462 28.3236C54.0063 28.2259 53.835 28.1701 53.6794 28.0957C53.6401 28.1453 53.6024 28.1934 53.5631 28.243C53.8884 28.7377 54.2153 29.234 54.5658 29.7674C53.7061 29.8357 52.9251 29.7767 52.2132 29.3332C51.6945 29.0106 51.1854 28.6741 50.651 28.3779C50.0098 28.0228 49.3199 27.9065 48.6049 28.1375C48.0737 28.3097 47.7452 28.7827 47.7389 29.3441C47.7326 29.8822 48.0391 30.3071 48.5781 30.5134C49.0653 30.6979 49.5981 30.5832 49.9171 30.2203C50.1874 29.9117 50.2047 29.5581 50.0083 29.2278C49.8605 28.9781 49.6625 28.7144 49.1659 28.9579C49.2146 29.0727 49.3623 29.0727 49.4661 29.1394C49.7175 29.2991 49.9533 29.5596 49.7521 29.8279C49.5918 30.0435 49.2696 30.2218 48.9962 30.2575C48.5561 30.3164 48.1082 29.8729 48.0564 29.4449C48.0014 28.9936 48.3345 28.5408 48.8264 28.4105C49.4598 28.243 50.046 28.4058 50.5897 28.716C51.1209 29.0184 51.6238 29.3658 52.1503 29.6744C53.1011 30.2311 54.1352 30.1024 55.1567 30.0559V30.0528Z" fill="#FFF3DC"/>
<path d="M34.1591 18C33.4377 20.0998 33.0087 22.2135 32.8217 24.3629C32.6016 26.8799 32.4398 29.4045 32.3423 31.9277C32.2009 35.617 32.1412 39.3079 32.0453 42.9988C32.0202 43.9603 32.0013 44.9218 31.9604 45.8817C31.9542 46.0477 31.8992 46.2632 31.7844 46.364C31.0757 46.9828 31.0285 47.5442 31.6634 48.2234C31.7043 48.2669 31.742 48.3165 31.7797 48.3615C30.9436 49.2035 28.5549 49.2113 27.6371 48.3739C27.7471 48.2483 27.865 48.1273 27.9655 47.9924C28.3207 47.5194 28.25 46.9347 27.8445 46.5098C27.7015 46.3609 27.5679 46.1268 27.5679 45.9314C27.5789 41.7721 27.5334 37.6114 27.6607 33.4568C27.7785 29.6155 28.4873 25.8718 30.2789 22.3996C31.1181 20.7728 32.2245 19.36 33.7332 18.276C33.8699 18.1783 34.0176 18.093 34.1591 18.0016V18Z" fill="#FFF3DC"/>
<path d="M71.9394 58.6526C74.138 58.7735 76.2015 59.0263 77.7997 60.6686C79.0051 61.9077 80.0974 63.2708 81.6658 64.1734C81.3751 64.5378 81.0969 64.848 80.8627 65.1876C80.4557 65.7754 80.2922 66.4189 80.6914 67.0656C81.1126 67.748 81.7459 68.1372 82.5789 68.0705C82.8759 68.0473 83.1635 67.8953 83.5532 67.7728C83.4605 68.0798 83.4385 68.3884 83.2861 68.6071C82.8335 69.2553 82.4154 69.9641 81.8261 70.4743C80.7951 71.3691 80.6254 72.4143 80.9272 73.6317C81.0089 73.962 81.1205 74.2861 81.2148 74.6149C81.4143 75.3127 81.254 75.9687 80.9492 76.5984C80.8989 76.7007 80.7496 76.8108 80.638 76.8201C79.8475 76.879 79.0931 76.786 78.4991 76.1889C78.3121 76.0013 78.1361 75.9082 77.9899 76.2091C77.7117 76.7813 77.2544 77.0248 76.6211 77C75.9484 76.9736 75.6106 76.5735 75.4188 75.9935C75.4047 75.9517 75.3654 75.9191 75.2915 75.8199C75.1737 75.9486 75.0495 76.0494 74.9709 76.1765C74.3345 77.1939 73.2202 77.2326 72.59 76.2308C72.3716 75.885 72.227 75.8478 71.9221 76.1424C71.3563 76.6914 70.9132 76.8589 70.3003 76.8511C70.1431 75.8664 70.9823 74.6009 71.985 74.4489C72.403 74.3854 72.8273 74.3761 73.2485 74.3357C73.9023 74.2753 74.578 74.297 75.202 74.1264C76.1763 73.8597 76.5566 73.1215 76.4969 72.1259C76.4341 71.093 76.4215 70.0555 76.4498 69.0212C76.4812 67.8689 76.159 66.8485 75.4565 65.9397C74.7902 65.0759 74.0971 64.2308 73.4465 63.3561C72.5664 62.1729 71.9331 60.8872 71.9095 59.3783C71.9064 59.1643 71.9268 58.9503 71.941 58.651L71.9394 58.6526Z" fill="#FFF3DC"/>
<path d="M29.7194 51.0568C30.7378 50.8769 31.7939 50.6846 32.8547 50.514C32.9631 50.4969 33.1234 50.5807 33.2083 50.6675C35.2843 52.7456 37.3525 54.8298 39.4191 56.9172C39.5039 57.0025 39.5699 57.1173 39.6139 57.2305C40.406 59.217 41.7214 60.8128 43.3747 62.1604C43.4816 62.2473 43.5774 62.3465 43.7079 62.4691C42.7068 63.4523 41.7528 64.4541 40.3133 64.7379C39.5102 64.8961 38.8345 64.6185 38.275 64.0354C37.6904 63.4274 37.0963 62.8304 36.5023 62.2333C36.4143 62.1449 36.3105 62.0721 36.2099 61.9992C35.2246 61.278 34.7877 61.3835 34.2989 62.4954C33.8777 62.0969 33.6939 61.6022 33.6844 61.0795C33.6734 60.4809 33.7395 59.8761 33.8243 59.2806C33.9296 58.5409 33.829 57.8989 33.2146 57.3887C32.9411 57.1607 32.7211 57.1219 32.4429 57.3747C32.1506 57.6399 31.8206 57.8725 31.3853 57.7484C30.4376 57.4786 29.4868 57.2181 28.5564 56.9017C28.3317 56.8257 28.0755 56.5745 28.0111 56.3527C27.8854 55.9231 28.2594 55.644 28.745 55.7805C29.5308 55.9991 30.3072 56.2473 31.0882 56.483C31.1542 56.5031 31.2218 56.5202 31.2894 56.5388L31.379 56.3992C31.1637 56.2628 30.9641 56.0937 30.7315 55.9991C30.458 55.8875 30.1579 55.841 29.8703 55.7665C29.3705 55.6363 28.8676 55.5137 28.371 55.3711C28.1934 55.3199 27.953 55.2641 27.8791 55.1338C27.7644 54.9337 27.6779 54.6313 27.7534 54.4406C27.8084 54.2995 28.173 54.1552 28.349 54.2018C29.3328 54.4592 30.3009 54.774 31.2674 55.0671C31.3884 54.9151 31.5157 54.7585 31.6288 54.6174C31.5927 54.5321 31.5015 54.4266 31.5188 54.3413C31.6823 53.5473 32.3219 53.2992 33.0857 53.1534C32.9427 53.3783 32.8138 53.6125 32.6535 53.8234C32.4979 54.0281 32.3093 54.2064 32.0909 54.4468C32.8201 54.3258 33.1423 53.8637 33.3434 53.3116C33.4016 53.1503 33.356 52.8913 33.2523 52.7549C33.191 52.6727 32.9112 52.7021 32.7541 52.7518C32.3502 52.8805 31.9636 53.0573 31.5628 53.1953C31.445 53.2356 31.2234 53.2589 31.1825 53.2C30.9169 52.8216 30.48 52.8433 30.1139 52.7146C29.4318 52.4773 28.7293 52.2974 28.0535 52.0477C27.8508 51.9733 27.7078 51.7422 27.5381 51.5825C27.7345 51.4289 27.9137 51.1917 28.1337 51.1451C28.426 51.0831 28.7639 51.1234 29.0578 51.2041C29.7838 51.4026 30.4957 51.6554 31.2171 51.8725C31.3098 51.9004 31.4261 51.8539 31.5314 51.8415C31.4623 51.7453 31.412 51.5964 31.3192 51.5639C30.7723 51.3747 30.216 51.2118 29.721 51.0583L29.7194 51.0568Z" fill="#FFF3DC"/>
<path d="M27.7408 61.2284C28.2641 60.8159 28.569 60.2762 28.6869 59.6234C28.7529 59.2496 28.6287 59.1535 28.2877 59.2899C27.8005 59.4838 27.3338 59.4264 26.878 59.1938C26.57 59.0372 26.4946 58.7937 26.6391 58.4928C26.7853 58.1889 27.0132 58.0369 27.3636 58.1827C27.6669 58.3083 27.964 58.4572 28.2783 58.5502C28.5737 58.6386 28.7686 58.5285 28.7545 58.1796C28.7435 57.9206 28.7529 57.6616 28.7529 57.3421C29.1804 57.4677 29.545 57.5577 29.8923 57.6895C29.9897 57.7267 30.0997 57.888 30.0997 57.9935C30.0997 58.361 30.293 58.3889 30.5932 58.3486C30.9342 58.3036 31.2925 58.2338 31.6178 58.2974C31.8536 58.3439 32.1365 58.5502 32.2323 58.7596C32.3062 58.9193 32.182 59.3132 32.0327 59.3892C31.8284 59.4931 31.5173 59.4078 31.2548 59.3752C31.1558 59.3628 31.0709 59.2341 30.9704 59.2201C30.7456 59.1907 30.4753 59.1286 30.3025 59.2232C30.1987 59.2806 30.1642 59.6358 30.2349 59.8001C30.4565 60.315 30.7441 60.8035 31.0458 61.3789C30.9594 61.5076 30.7833 61.7448 30.6372 61.9976C29.9929 63.1188 30.2286 64.2199 31.2564 65.0108C31.4811 65.183 31.6257 65.1907 31.786 64.9395C31.8834 64.7875 32.0155 64.5874 32.1663 64.5533C32.4005 64.4991 32.7227 64.4866 32.8971 64.6092C33.0433 64.7115 33.1407 65.0806 33.0668 65.2465C32.9364 65.5412 32.7054 65.8513 32.4319 66.0095C32.0343 66.2375 31.566 66.36 31.1149 66.4841C30.6781 66.6035 30.6152 66.7089 30.9059 67.0687C31.1385 67.3587 31.4025 67.6239 31.7137 67.9651C31.2925 68.0038 30.9169 68.0566 30.5413 68.0659C30.2427 68.0721 30.1516 68.1961 30.0997 68.4768C30.0211 68.8971 29.8923 69.3143 29.7335 69.7128C29.622 69.9904 29.3705 69.9904 29.2416 69.7345C29.0483 69.3515 28.8519 68.9467 28.7843 68.5311C28.7246 68.1651 28.5847 68.0628 28.2484 68.0581C27.9105 68.0535 27.5742 68.0069 27.1719 67.9728C27.4894 67.6099 27.7644 67.3184 28.0127 67.0067C28.2689 66.6841 28.2123 66.605 27.8021 66.4887C27.3369 66.3585 26.867 66.2189 26.4364 66.0095C26.2022 65.8948 26.0058 65.6497 25.8612 65.4202C25.6726 65.124 25.6428 64.7906 25.9932 64.5595C26.339 64.3331 26.6564 64.4308 26.9236 64.7069C27.4155 65.2124 27.4768 65.214 27.9687 64.6867C28.635 63.9702 28.7686 63.1576 28.3694 62.2768C28.2107 61.9263 27.9765 61.6115 27.7424 61.2253L27.7408 61.2284Z" fill="#FFF3DC"/>
<path d="M29.3454 49.3742C30.4675 49.2935 31.236 49.2237 31.8992 48.7755C32.3219 48.4902 32.3329 48.346 31.9463 48.0048C31.6524 47.7458 31.4811 47.4434 31.6273 47.0588C31.7719 46.6742 32.1192 46.561 32.4995 46.5377C33.3513 46.4866 34.0742 46.9565 34.3256 47.7195C34.5881 48.5166 34.3005 49.3292 33.5792 49.7882C32.8185 50.2721 31.9526 50.438 31.0772 50.5419C29.71 50.7047 28.3459 50.6536 27.0147 50.2814C26.6109 50.1682 26.2117 50.0022 25.8518 49.7882C25.1022 49.3431 24.8271 48.5042 25.1084 47.6822C25.3756 46.9006 26.1111 46.4556 27.0006 46.5408C27.3668 46.5765 27.6827 46.7114 27.8037 47.0836C27.9231 47.4481 27.7817 47.7443 27.4941 47.9924C27.0807 48.3475 27.0572 48.5507 27.5475 48.7709C28.2186 49.0733 28.9493 49.247 29.3454 49.3757V49.3742Z" fill="#FFF3DC"/>
<path d="M45.0563 37.6393C45.1663 37.3136 45.2244 37.1446 45.292 36.9461C45.1836 36.912 45.1128 36.8685 45.0453 36.8716C43.5884 36.9631 42.2086 36.6266 40.8492 36.1521C40.3762 35.9861 39.9031 35.7969 39.4128 35.7039C38.6867 35.5643 38.2703 35.0758 37.9324 34.5129C37.8192 34.3237 37.8349 34.0027 37.9151 33.7856C37.9465 33.7003 38.3504 33.6646 38.5296 33.7359C39.1519 33.9872 39.7805 34.2492 40.3526 34.592C42.0357 35.6 43.898 35.9846 45.8122 36.2156C45.875 36.2234 45.9395 36.2327 46.0008 36.225C47.137 36.059 47.6556 36.7584 48.0454 37.6424C48.2041 38.0006 48.0909 38.2255 47.7043 38.1634C46.8306 38.0254 45.9678 37.8223 45.0531 37.6377L45.0563 37.6393Z" fill="#FFF3DC"/>
<path d="M27.5978 52.2788C28.3034 52.5005 28.899 52.6897 29.4947 52.8727C29.9284 53.0061 30.3622 53.1364 30.7975 53.2635C31.1102 53.355 31.423 53.4512 31.3507 53.8714C31.2862 54.2436 30.8462 54.5507 30.4722 54.4669C30.1217 54.3894 29.7823 54.2607 29.4365 54.1614C28.91 54.0095 28.3789 53.8745 27.8571 53.7133C27.307 53.5427 27.0273 53.141 27.1955 52.7177C27.2662 52.5378 27.4736 52.409 27.5962 52.2788H27.5978Z" fill="#FFF3DC"/>
</g>
</g>
<defs>
<clipPath id="clip0_788_24">
<rect width="71" height="59" fill="white" transform="translate(25 18)"/>
</clipPath>
</defs>
</svg>
