<svg width="106" height="96" viewBox="0 0 106 96" fill="none" xmlns="http://www.w3.org/2000/svg">
<circle cx="48" cy="48" r="48" fill="#8D3232"/>
<g clip-path="url(#clip0_80_532)">
<path d="M62.8803 65.4407C63.3105 64.6115 63.7004 63.9176 64.0397 63.1994C64.9507 61.2755 65.7586 59.3152 65.8652 57.1554C65.8915 56.6245 65.8075 56.085 65.7446 55.5541C65.7288 55.4154 65.5994 55.2905 65.4491 55.0354C65.3861 55.2662 65.3319 55.3512 65.3511 55.4136C65.7568 56.7199 65.5068 57.9967 65.164 59.2614C64.6254 61.2512 63.7616 63.1092 62.7299 64.8925C61.9116 66.3064 61.0914 67.7202 60.2643 69.1289C59.439 70.5358 59.8569 71.6079 61.4464 72.0103C62.1179 72.1804 62.8191 72.2289 63.55 72.34C63.3157 73.1744 62.7911 73.8024 62.1144 74.3159C61.3485 74.8953 60.4759 75.2318 59.5282 75.3984C58.6084 75.5597 58.166 76.5798 58.729 77.3119C59.2012 77.9242 59.2204 78.5765 58.9704 79.2288C58.7815 79.7232 58.472 80.1795 58.1695 80.6201C58.0698 80.7641 57.8197 80.8803 57.6379 80.8786C56.8755 80.8734 56.1201 80.7693 55.5343 80.2263C55.237 79.9505 55.0324 79.9418 54.7509 80.235C54.0951 80.9133 53.2436 80.9358 52.4042 80.7762C52.0999 80.719 51.7974 80.438 51.5806 80.1864C51.3253 79.888 51.1539 79.8776 50.9284 80.1777C50.5926 80.6288 50.11 80.8092 49.5784 80.8977C49.0538 80.9844 48.5694 80.8682 48.2582 80.4431C47.919 79.98 47.6689 80.0389 47.251 80.3633C46.8838 80.6479 46.3994 80.7849 45.9063 80.9202C46.0969 79.8152 46.3924 78.7847 47.0971 77.9503C47.6164 77.3361 48.4016 77.3552 49.1447 77.3691C49.3896 77.3743 49.6361 77.3934 49.8792 77.3795C50.472 77.3466 51.0735 77.3518 51.654 77.2477C53.8766 76.8487 54.9957 75.2926 54.5463 72.9801C54.2228 71.3199 53.6318 69.7118 53.1841 68.0724C52.5039 65.5864 51.8481 63.0953 52.4077 60.4862C52.4986 60.0629 52.6368 59.65 52.7347 59.2267C52.7609 59.1122 52.719 58.9838 52.7067 58.8607C52.6036 58.9491 52.4304 59.0237 52.406 59.1295C52.2154 59.9744 51.9845 60.8175 51.9006 61.6745C51.7555 63.1525 51.9146 64.6201 52.3063 66.06C52.378 66.3237 52.4217 66.5943 52.4777 66.858C52.406 66.8823 52.3675 66.9083 52.3465 66.8997C49.4228 65.635 46.8645 63.8829 45.0075 61.2685C41.6501 56.5395 42.1345 51.0454 46.2333 46.7848C47.5482 45.4178 49.0398 44.2815 50.6451 43.2753C51.1714 42.9457 51.6558 42.5294 52.093 42.087C52.4899 41.6863 52.6578 41.1606 52.4217 40.5985C52.2538 40.1978 51.9058 40.0608 51.4862 40.0556C50.8497 40.0486 50.4265 40.3522 50.1782 40.9195C50.1013 41.093 50.0296 41.2682 49.9474 41.4642C49.4088 41.3566 49.1482 40.9975 48.9891 40.5326C48.8545 40.1388 48.7461 39.7329 48.5642 39.3616C48.4873 39.2055 48.2529 39.124 48.0903 39.0095C48.0116 39.1621 47.8997 39.3096 47.863 39.4709C47.7686 39.8855 47.7091 40.3088 47.6217 40.8067C47.0446 40.4216 46.6057 40.0243 46.4518 39.4328C46.3329 38.973 46.1738 39.0129 45.8521 39.2454C45.2838 39.6583 44.6228 39.7953 43.9146 39.7971C44.0667 39.4085 44.2171 39.0476 44.343 38.6781C44.3832 38.5602 44.4042 38.3312 44.3552 38.3052C44.2363 38.2444 44.0545 38.2306 43.9251 38.2739C42.9668 38.6035 41.9806 38.6573 40.9978 38.6244C41.115 37.9252 41.1937 37.2435 41.3511 36.579C41.4437 36.18 41.6378 35.8019 41.8197 35.4289C42.0155 35.0264 42.3216 34.9379 42.7727 35.0802C44.2048 35.5295 45.6422 35.9615 47.0936 36.3431C47.6602 36.4923 48.2687 36.4958 48.8982 36.5704C48.7286 37.0787 49.0696 37.2331 49.4875 37.3319C50.3513 37.5366 51.2134 37.7483 52.079 37.9443C52.2276 37.9773 52.3955 37.9651 52.5493 37.9443C53.1456 37.861 53.359 37.5262 53.0792 36.9989C52.7557 36.3865 52.392 35.788 51.9863 35.2242C51.4372 34.4626 50.8042 33.7583 50.2621 32.9932C49.9141 32.5023 49.6658 31.942 49.3651 31.418C49.2881 31.2845 49.1797 31.1665 49.0853 31.0433C48.9611 31.1526 48.7635 31.2428 48.7251 31.3764C48.6114 31.7858 48.559 32.2126 48.454 32.7903C47.8473 32.2959 47.3069 31.8483 46.7579 31.4094C46.632 31.3088 46.4816 31.2411 46.3434 31.1578C46.3155 31.3157 46.2542 31.477 46.2682 31.6314C46.298 31.9923 46.3609 32.3496 46.4239 32.7989C45.7367 32.3895 45.0932 32.0408 44.7329 31.3851C44.3552 30.6964 43.8201 30.2002 43.1871 29.7353C42.6241 29.3207 42.1834 28.7343 41.727 28.1913C41.5679 28.0023 41.4193 27.7125 41.4367 27.4818C41.491 26.7844 41.15 26.2519 40.8754 25.6603C40.4278 24.694 41.0835 23.5803 42.2411 23.1865C43.2763 22.8343 44.2818 23.3305 44.5493 24.3627C44.6193 24.6316 44.5598 24.9386 44.5336 25.2249C44.5196 25.3845 44.4532 25.5406 44.3797 25.8077C45.2313 25.6846 45.985 25.584 46.7351 25.4643C48.3719 25.2023 50.0086 24.9369 51.6436 24.6593C53.011 24.4269 53.7874 22.9367 53.2313 21.3875C54.1581 21.3875 55.0359 21.3511 55.9085 21.3979C56.6674 21.4378 57.3091 21.7969 57.8547 22.326C58.194 22.6556 58.5647 23.0494 59.0823 22.8118C59.6016 22.5724 59.6908 22.0415 59.6785 21.5159C59.6698 21.136 59.6401 20.756 59.6191 20.357C59.6453 20.3466 59.703 20.305 59.7345 20.3189C60.6875 20.7422 61.658 21.136 62.5813 21.6165C62.917 21.79 63.1671 22.1543 63.4084 22.4683C63.7127 22.8638 63.7809 22.8846 64.0711 22.4579C64.4716 21.8663 64.8755 21.2747 64.823 20.4351C65.9334 20.7717 66.9529 21.1429 67.7293 21.9669C68.2766 22.5481 68.8834 23.0737 69.7262 22.8603C70.2928 22.7181 70.8104 22.3659 71.3297 22.071C71.4819 21.9843 71.5623 21.7744 71.676 21.62C71.7424 21.6529 71.8071 21.6859 71.8736 21.7188C71.8141 22.0745 71.7861 22.4405 71.6882 22.7857C71.3909 23.837 70.7842 24.7044 69.9448 25.3931C69.5636 25.7054 69.5846 25.9084 69.8801 26.2744C70.9713 27.6241 71.0902 29.2045 70.9608 30.8265L70.7352 30.9861C70.1232 30.3668 69.5111 29.7474 68.8327 29.0587C68.8851 29.2634 68.8799 29.4577 68.9743 29.567C69.3258 29.9747 69.6668 30.4084 70.0917 30.7293C70.7946 31.2584 71.0587 31.9315 70.994 32.7677C70.9328 33.5622 70.8646 34.3568 70.7911 35.1513C70.7824 35.245 70.723 35.3352 70.6705 35.474C70.0934 35.0177 69.5321 34.6049 69.0075 34.1503C68.3553 33.5865 68.1455 32.8041 67.9339 32.0009C67.738 31.2602 67.3883 30.5576 67.0858 29.8481C67.0281 29.7145 66.8899 29.5965 66.7588 29.5185C66.6416 29.4491 66.486 29.4439 66.3479 29.4092C66.3514 29.5375 66.3181 29.6833 66.3653 29.7926C66.7868 30.7606 66.7413 31.7563 66.5594 32.7608C66.5455 32.8423 66.5017 32.9204 66.4598 33.0314C65.9771 32.6445 65.4858 32.308 65.0679 31.8986C64.6727 31.5117 64.3527 31.0485 64.0064 30.6287C63.863 31.3729 63.7162 32.1432 63.5675 32.9117C63.5081 32.9134 63.4504 32.9152 63.3909 32.9169C62.9275 32.4156 62.4624 31.9125 61.9815 31.392C61.8311 32.0773 61.693 32.7157 61.5531 33.3558C61.4954 33.3558 61.4394 33.3558 61.3817 33.3558C61.1894 33.0973 61.0058 32.8319 60.8047 32.5804C60.6211 32.3479 60.42 32.1293 60.2276 31.9038C60.1717 31.9333 60.1157 31.9628 60.0598 31.9923C60.1402 32.3583 60.2521 32.7226 60.2923 33.0939C60.3325 33.4651 60.3011 33.8433 60.3011 34.218C60.2434 34.2475 60.1839 34.277 60.1262 34.3047C59.5439 33.8138 58.9634 33.3246 58.3758 32.8302C58.0348 33.328 57.6781 33.8485 57.3021 34.3949C56.837 34.1035 56.3072 33.9075 55.9854 33.5328C55.6742 33.1702 55.578 32.6272 55.3244 32.0131C55.258 32.2716 55.1828 32.4051 55.1968 32.5266C55.2825 33.2465 55.5185 33.8624 56.2635 34.192C56.5555 34.3203 56.809 34.5615 57.0381 34.7939C57.2707 35.0281 57.3896 34.9934 57.554 34.7298C57.8197 34.3047 58.1205 33.9023 58.4755 33.3922C59.0385 33.93 59.5684 34.4383 60.1 34.9414C60.1577 34.9952 60.2696 35.0871 60.2871 35.0732C60.3728 35.0073 60.4794 34.9188 60.4969 34.8234C60.5843 34.3117 60.6473 33.7964 60.7347 33.1737C60.8711 33.3558 60.9638 33.4616 61.0372 33.5813C61.3205 34.0393 61.4761 34.048 61.7454 33.564C61.9465 33.2031 62.0864 32.8093 62.2543 32.4294C62.8523 32.7191 62.9013 32.7885 63.2248 33.8363C63.8718 33.2743 63.9872 32.4832 64.3072 31.6887C65.0049 32.5734 66.2464 32.8492 66.5332 34.0914C66.9896 32.9672 67.084 31.7997 66.9984 30.6027C67.0543 30.594 67.1103 30.5836 67.1662 30.5749C67.2956 30.9896 67.488 31.3955 67.5422 31.8205C67.717 33.1754 68.2993 34.2648 69.4762 35.0073C69.8276 35.2294 69.9186 35.5226 69.9885 35.9372C70.1267 36.7473 70.4274 37.5314 70.6722 38.3225C70.7632 38.6157 70.8891 38.9002 70.9153 39.2558C70.625 39.0095 70.354 38.7337 70.041 38.5237C69.5636 38.2045 69.0635 37.9148 68.5581 37.6407C67.6681 37.1602 66.9931 36.4836 66.5577 35.5729C66.493 35.4376 66.4126 35.3074 66.2482 35.0073C65.8862 35.6717 65.5889 36.2165 65.1815 36.9607C64.5415 36.3431 63.9575 35.7758 63.4154 35.2519C63.4434 35.4618 63.5745 35.8279 63.5116 36.1592C63.4486 36.4992 63.1968 36.8046 63.0254 37.1324C62.3942 36.5929 61.7892 36.076 61.1859 35.5607C61.1334 35.618 61.081 35.6735 61.0267 35.7307C61.1754 36.2408 61.7559 36.3709 62.0567 36.7473C62.3732 37.1446 62.7159 37.521 63.0692 37.9322C63.3664 37.3458 63.6375 36.8115 63.9487 36.2026C64.3387 36.5478 64.6954 36.8462 65.0294 37.1654C65.2724 37.3979 65.4333 37.3944 65.5802 37.0769C65.7691 36.6693 65.9771 36.2703 66.187 35.8504C66.5542 36.3032 66.8357 36.7803 67.2379 37.1168C67.7678 37.5592 68.399 37.8767 68.9673 38.2774C69.1282 38.3919 69.3363 38.6139 69.3223 38.7701C69.2209 39.9376 69.6091 40.9177 70.3732 41.7782C70.4047 41.8129 70.4099 41.8719 70.4519 41.9898C68.1699 42.257 66.6888 41.119 65.5452 39.3391C65.4945 39.3478 65.4456 39.3582 65.3948 39.3668C65.2934 39.8352 65.192 40.3054 65.0801 40.8206C64.1061 40.0122 62.7509 39.7034 62.2281 38.2496C61.9588 38.699 61.7804 38.9956 61.6423 39.2281C61.0635 38.5411 60.5284 37.8506 59.9304 37.2192C59.5317 36.7994 59.4565 36.8566 59.2152 37.3684C59.0333 37.757 58.8042 38.123 58.5822 38.5272C58.11 38.1837 57.6361 37.9287 57.2882 37.5575C56.9629 37.2105 56.7706 36.7404 56.5188 36.3258C56.4715 36.3396 56.4243 36.3535 56.3771 36.3691C56.3894 36.5201 56.3701 36.6814 56.4191 36.8184C56.6307 37.4256 56.9891 37.9079 57.554 38.2653C57.9037 38.4873 58.1712 38.8325 58.5524 39.1934C58.9004 38.6469 59.2641 38.0727 59.6471 37.469C60.4969 38.1091 61.0565 38.9349 61.331 40.1215C61.7245 39.7225 61.9885 39.4553 62.2438 39.1934C62.5778 39.4935 62.9468 39.8092 63.293 40.1475C63.3804 40.2325 63.4434 40.3921 63.4381 40.5135C63.4084 41.1311 63.3524 41.747 63.3052 42.3611C62.2158 41.6082 61.1981 40.9056 60.1035 40.1492C59.9758 40.9212 59.8639 41.6117 59.7415 42.3455C59.2029 41.5891 58.7395 40.9247 58.2622 40.2689C57.9964 39.9046 57.7918 39.922 57.5207 40.321C57.1465 40.8692 56.6849 41.3584 56.1848 41.9656C56.0344 41.2768 55.9417 40.7581 55.8018 40.2533C55.7529 40.0781 55.5867 39.9359 55.4731 39.778C55.3804 39.9307 55.258 40.0712 55.1985 40.236C55.0097 40.7668 54.7806 41.2595 54.2123 41.6082C53.9413 40.7564 53.6807 39.9428 53.3677 38.9609C53.289 39.235 53.1981 39.3807 53.2226 39.5022C53.317 39.9584 53.4516 40.406 53.5671 40.8588C53.6475 41.1728 53.7594 41.4868 53.7874 41.806C53.8171 42.1512 53.9885 42.2362 54.2158 42.0436C54.6844 41.6481 55.1076 41.2005 55.578 40.746V42.5623C56.6849 42.146 57.2794 41.3202 57.9089 40.4788C58.7605 41.2404 59.1854 42.224 59.5474 43.4002C60.1524 42.5484 60.2154 41.7105 60.4182 40.8379C61.4394 41.6273 62.8226 41.891 63.1006 43.4002C63.7546 42.4999 63.7634 41.4954 63.8718 40.3869C64.2285 40.6783 64.5153 40.9143 64.8056 41.1467C64.9594 41.2699 65.1203 41.3827 65.2777 41.4989C65.3389 41.3098 65.4123 41.1225 65.4595 40.9282C65.512 40.7113 65.5435 40.4875 65.5942 40.203C65.7131 40.2984 65.8093 40.3557 65.8775 40.4372C66.9599 41.721 68.2906 42.4739 70.0305 42.3836C70.1476 42.3767 70.3417 42.4322 70.3802 42.5138C70.7509 43.3222 71.4819 43.7437 72.3195 44.2711C71.2301 44.5348 70.284 44.6892 69.2419 44.1826V46.7223C67.9024 46.5836 66.6644 46.4378 65.6327 45.2911C65.3651 46.5992 64.4558 47.1092 63.4923 47.6054C63.0971 46.2349 62.0672 45.109 62.013 43.6049C61.9972 43.1747 61.6405 43.0515 61.3765 43.395C61.074 43.7906 60.8939 44.2936 60.7242 44.7707C60.5371 45.2981 60.4217 45.8497 60.2748 46.391C60.2049 46.3962 60.1367 46.4014 60.0667 46.4049C59.6104 45.704 59.1557 45.0049 58.6521 44.2312C58.4475 44.7482 58.3006 45.2877 58.0278 45.7561C57.7568 46.2245 57.3616 46.62 56.9542 47.13C56.6726 46.1551 56.4348 45.3258 56.1953 44.4949C56.148 44.4689 56.1008 44.4411 56.0536 44.4151C55.828 45.9035 55.3629 47.2116 53.7507 47.6539C53.5618 46.764 53.3677 45.8515 53.1631 44.8869C52.5004 45.2079 51.7992 45.5444 51.0438 45.9105C51.4862 44.7846 51.8796 43.7836 52.3203 42.6595C52.1262 42.7601 51.8919 42.8052 51.8167 42.937C51.6401 43.2493 51.4792 43.5928 51.4197 43.9415C51.2903 44.7013 50.9546 45.3137 50.3373 45.7804C50.2394 45.8549 50.1747 45.9729 50.0366 46.1429C51.1312 46.3962 51.9478 45.8983 52.8081 45.5028C53.1124 46.4639 53.5758 47.359 53.2068 48.4138C53.2645 48.4224 53.3222 48.4328 53.3782 48.4415C53.929 48.1032 54.5375 47.8309 55.0132 47.4093C55.4801 46.9964 55.8141 46.4344 56.2862 45.8341C56.3596 46.4535 56.4278 47.0346 56.5065 47.706C57.6012 47.1942 58.2447 46.2939 58.7693 45.1142C59.154 45.7578 59.4862 46.2973 59.801 46.8472C59.9601 47.1266 60.1472 47.1057 60.2626 46.8646C60.5424 46.2765 60.8134 45.6797 61.0198 45.0639C61.1754 44.599 61.1439 44.0664 61.63 43.6639C61.6807 43.8773 61.7052 44.0421 61.7594 44.1965C61.999 44.8783 62.1861 45.5895 62.5131 46.2297C62.8436 46.875 63.1863 47.4857 63.0587 48.3079C64.0309 47.5845 65.2934 47.2983 65.7323 46.188C67.0106 46.5784 68.2451 46.9548 69.5916 47.366V44.7967C71.6322 44.8713 72.6622 44.7117 73.0749 44.2589C72.4576 43.8825 71.8438 43.5078 71.2283 43.1331C71.2353 43.0654 71.2423 42.9978 71.2493 42.9301C71.6934 42.8416 72.1341 42.7063 72.5818 42.6734C74.1171 42.5571 75.6611 42.5415 77.1877 42.368C79.7057 42.0818 82.2168 41.7262 84.7243 41.3549C87.4259 40.9559 90.1241 40.5292 92.866 40.6142C94.5184 40.6645 96.1359 40.9125 97.6677 41.5926C98.6749 42.0402 99.6017 41.7695 100.172 40.8379C101.062 39.3842 101.233 37.809 100.56 36.246C99.9549 34.8408 98.64 34.4019 97.2306 34.2336C95.1112 33.9786 93.0496 34.4453 90.9827 34.7974C87.7547 35.3456 84.518 35.6353 81.2935 34.8477C80.3002 34.6049 79.356 34.1573 78.3907 33.8016C77.9973 33.6559 77.6161 33.4686 77.2139 33.3645C76.2364 33.1112 75.3691 33.6247 75.1173 34.591C75.0316 34.9223 74.9984 35.2675 74.9407 35.6093C73.9265 35.1808 73.2567 33.6212 73.589 32.6411C73.7428 32.1866 73.9544 31.7372 74.222 31.34C74.4423 31.0104 74.3916 30.8195 74.1643 30.5246C73.6467 29.8515 73.1046 29.175 72.7164 28.4273C71.4871 26.0628 71.947 23.8214 73.9387 22.0224C75.8062 20.3362 78.0567 19.5035 80.5066 19.1219C85.0338 18.4175 89.1361 19.6302 92.88 22.0519C95.2494 23.5855 97.4526 25.3688 99.7364 27.0342C100.299 27.4454 100.869 27.8461 101.457 28.2208C101.672 28.3579 101.936 28.4429 102.19 28.4863C102.889 28.606 103.047 28.4151 102.838 27.7524C102.627 27.0828 102.865 26.493 103.478 26.1686C104.146 25.8147 104.949 25.9621 105.435 26.5277C106.455 27.7143 106.045 29.6746 104.592 30.2661C102.889 30.9601 101.268 30.6547 99.864 29.5185C98.6854 28.5661 97.6065 27.494 96.4612 26.4982C96.0153 26.1113 95.5186 25.78 95.0308 25.4452C94.8874 25.3463 94.695 25.3151 94.4502 25.3099C94.9661 26.3681 94.5394 27.6987 95.5799 28.5765C93.6319 28.3301 92.2155 27.3829 91.3831 25.5319C90.9774 27.2372 90.1661 28.3735 88.2093 28.3908C89.1011 26.833 89.916 25.2995 88.5748 23.6861C87.8788 22.8482 86.9101 22.4371 85.8085 22.2323C86.4205 23.7676 87.0885 25.2682 85.8434 26.7532C85.1265 27.6085 84.1228 27.9519 82.9284 28.2417C83.0946 27.9745 83.1855 27.8218 83.2817 27.6726C85.0058 24.9872 83.4793 21.8906 80.2618 21.5749C80.0414 21.554 79.7424 21.6234 79.6008 21.7674C79.4994 21.8715 79.5396 22.1994 79.6235 22.3763C80.0484 23.2645 79.8194 24.0088 78.9258 24.5119C77.9326 23.1813 76.6368 23.0269 75.2956 24.0816C74.1783 24.9594 74.0436 26.6509 75.0211 27.7663C75.2607 28.0404 75.5474 28.2729 75.822 28.514C76.1175 28.776 76.3343 28.7465 76.5809 28.3943C77.3293 27.3222 78.3453 26.7272 79.7022 26.8434C80.2041 26.8868 80.6395 27.0637 80.9455 27.5252C80.5643 27.6935 80.2041 27.8166 79.8788 28.004C78.5324 28.7777 78.2788 29.9192 79.1479 31.2081C79.2161 31.3088 79.2878 31.4076 79.363 31.5031C79.9033 32.1935 79.961 32.1866 80.3982 31.4562C80.7584 30.8542 81.1641 30.2956 81.9422 30.2089C81.9842 30.2783 82.0157 30.3078 82.0157 30.3373C82.0419 31.7615 82.4581 32.3253 83.8552 32.7191C85.2367 33.1077 86.6583 33.1806 88.0729 33.0141C90.3462 32.7469 92.6054 32.3479 94.8804 32.1085C96.97 31.8882 99.0631 31.9333 100.932 33.0939C102.786 34.244 103.741 35.9354 103.692 38.1039C103.643 40.2724 102.657 41.9222 100.672 42.9249C100.417 43.0533 100.186 43.1574 100.492 43.4887C102.029 45.1472 102.749 47.1821 103.146 49.3436C103.687 52.2858 103.241 55.1274 102.029 57.8389C101.072 59.9744 100.691 62.247 100.181 64.497C99.7539 66.381 100.105 68.062 101.114 69.6719C101.562 70.3866 102.163 70.7526 102.992 70.8168C103.666 70.8689 103.814 71.1308 103.501 71.7397C103.052 72.6158 102.323 73.2403 101.525 73.7885C100.035 74.8155 99.6419 76.3838 100.534 77.9693C100.917 78.6494 101.389 79.2791 101.81 79.9383C102.225 80.5854 102.104 80.8387 101.324 80.8855C100.438 80.9376 99.5982 80.8335 99.0754 79.9748C99.0264 79.895 98.9198 79.8499 98.7973 79.7562C98.3427 80.3616 97.9755 81.0451 97.0382 80.9306C96.2356 80.8335 95.7635 80.2836 95.2091 79.7163C94.9871 79.9626 94.8139 80.1812 94.6146 80.3703C93.7997 81.1509 92.9551 81.1145 92.2942 80.2194C91.9724 79.7839 91.7678 79.81 91.3989 80.1552C90.8445 80.6756 90.4144 80.8283 89.8163 80.8404C90.1136 79.7822 90.7011 78.9599 91.586 78.3406C92.49 77.7091 93.5235 77.4958 94.6024 77.4003C95.7162 77.3032 96.3423 76.6075 96.323 75.5025C96.3073 74.6004 96.2094 73.6966 96.2496 72.7979C96.3353 70.8983 95.398 69.5539 93.9676 68.4696C93.429 68.0602 92.8572 67.6543 92.2382 67.3941C90.0209 66.4608 88.2338 64.9897 86.7178 63.1768C85.0898 61.2321 82.9739 60.3803 80.4891 60.1843C77.1387 59.9206 73.9824 60.6648 70.938 61.9416C68.7802 62.8472 66.6714 63.8673 64.5345 64.8214C64.0327 65.0452 63.5046 65.2082 62.8733 65.4407H62.8803ZM60.5546 28.4828C60.5826 28.4325 60.6106 28.3839 60.6385 28.3336C60.3588 28.0109 60.0807 27.6883 59.7205 27.2719C62.4396 28.0751 64.7199 28.1115 65.2025 27.4541C64.6989 26.9354 64.2023 26.4236 63.6357 25.839C64.6587 25.7436 65.5435 25.7002 66.4161 25.5701C67.5159 25.407 68.5791 25.1034 69.3765 24.2603C69.5216 24.1059 69.5828 23.8735 69.6825 23.6774C69.6353 23.6531 69.5881 23.6289 69.5409 23.6046C69.4832 23.6358 69.401 23.6514 69.3695 23.7C68.7942 24.5986 67.8692 24.9698 66.8987 25.1156C65.7131 25.2942 64.5013 25.3047 63.3 25.3914C63.1286 25.4035 62.9607 25.4382 62.7736 25.4643C63.3787 26.1217 63.9312 26.7202 64.559 27.402C62.6372 27.7802 60.9568 27.6258 59.4302 26.5485C59.2746 26.4392 59.084 26.3768 58.9109 26.2935C58.8672 26.349 58.8252 26.4028 58.7815 26.4583C59.1435 27.0117 59.5072 27.5668 59.8971 28.1636C58.9406 28.2399 58.0716 28.174 57.2794 27.6778C56.7024 27.317 56.1358 26.9406 55.5413 26.6092C54.8278 26.2119 54.0602 26.0818 53.2645 26.3403C52.6735 26.5329 52.308 27.062 52.301 27.69C52.294 28.292 52.635 28.7673 53.2348 28.998C53.7769 29.2045 54.3697 29.0761 54.7247 28.6701C55.0254 28.3249 55.0447 27.9294 54.8261 27.5599C54.6617 27.2806 54.4414 26.9857 53.8888 27.258C53.943 27.3864 54.1074 27.3864 54.2228 27.461C54.5026 27.6397 54.7649 27.9311 54.541 28.2312C54.3627 28.4724 54.0042 28.6719 53.7 28.7118C53.2103 28.7777 52.712 28.2816 52.6543 27.8028C52.5931 27.2979 52.9638 26.7914 53.5111 26.6456C54.2158 26.4583 54.868 26.6404 55.4731 26.9874C56.0641 27.3257 56.6237 27.7143 57.2095 28.0595C58.2674 28.6823 59.418 28.5383 60.5546 28.4863V28.4828Z" fill="#FFF3DC"/>
<path d="M37.1911 15C36.3884 17.3489 35.9111 19.7134 35.703 22.1178C35.4582 24.9334 35.278 27.7576 35.1696 30.5801C35.0123 34.7072 34.9458 38.836 34.8391 42.9648C34.8112 44.0403 34.7902 45.1159 34.7447 46.1897C34.7377 46.3754 34.6765 46.6165 34.5489 46.7293C33.7602 47.4214 33.7078 48.0494 34.4142 48.8093C34.4597 48.8578 34.5017 48.9134 34.5436 48.9637C33.6133 49.9057 30.9554 49.9143 29.9342 48.9776C30.0566 48.837 30.1878 48.7017 30.2997 48.5508C30.6949 48.0217 30.6162 47.3677 30.165 46.8923C30.0059 46.7258 29.8573 46.4638 29.8573 46.2453C29.8695 41.5926 29.8188 36.9381 29.9604 32.2906C30.0916 27.9936 30.8802 23.8058 32.8737 19.9216C33.8074 18.1018 35.0385 16.5214 36.7172 15.3088C36.8693 15.1995 37.0337 15.1041 37.1911 15.0017V15Z" fill="#FFF3DC"/>
<path d="M79.2284 60.4757C81.6747 60.611 83.9707 60.8938 85.749 62.731C87.0902 64.1171 88.3055 65.6419 90.0507 66.6516C89.7272 67.0593 89.4177 67.4062 89.1571 67.7861C88.7042 68.4436 88.5224 69.1636 88.9665 69.887C89.4352 70.6503 90.1399 71.0857 91.0666 71.0111C91.3971 70.9851 91.7171 70.8151 92.1508 70.678C92.0476 71.0215 92.0231 71.3667 91.8535 71.6113C91.3499 72.3365 90.8848 73.1293 90.229 73.7C89.0819 74.701 88.8931 75.8702 89.2288 77.232C89.3198 77.6016 89.4439 77.9641 89.5488 78.3319C89.7709 79.1126 89.5925 79.8464 89.2533 80.5507C89.1973 80.6652 89.0312 80.7884 88.9071 80.7988C88.0275 80.8647 87.1882 80.7606 86.5272 80.0927C86.3191 79.8828 86.1232 79.7787 85.9606 80.1153C85.6511 80.7554 85.1423 81.0278 84.4376 81C83.6891 80.9705 83.3132 80.5229 83.0998 79.8741C83.0841 79.8273 83.0404 79.7909 82.9582 79.6798C82.8271 79.8238 82.6889 79.9366 82.6015 80.0788C81.8933 81.2169 80.6535 81.2602 79.9523 80.1396C79.7092 79.7527 79.5484 79.7111 79.2091 80.0407C78.5796 80.6548 78.0865 80.8421 77.4045 80.8335C77.2297 79.7319 78.1634 78.3163 79.2791 78.1463C79.7442 78.0752 80.2163 78.0647 80.685 78.0196C81.4124 77.952 82.1643 77.9763 82.8585 77.7854C83.9427 77.4871 84.3659 76.6613 84.2994 75.5476C84.2295 74.3922 84.2155 73.2316 84.247 72.0745C84.2819 70.7856 83.9235 69.6441 83.1418 68.6275C82.4004 67.6612 81.6292 66.7158 80.9053 65.7373C79.9261 64.4137 79.2214 62.9756 79.1951 61.2876C79.1916 61.0482 79.2144 60.8088 79.2301 60.474L79.2284 60.4757Z" fill="#FFF3DC"/>
<path d="M32.2512 51.9787C33.3843 51.7775 34.5594 51.5624 35.7397 51.3716C35.8604 51.3525 36.0387 51.4462 36.1332 51.5433C38.4431 53.8679 40.7443 56.1995 43.0438 58.5345C43.1382 58.6299 43.2116 58.7583 43.2606 58.8849C44.1419 61.1072 45.6055 62.8923 47.4451 64.3998C47.564 64.497 47.6707 64.608 47.8158 64.745C46.7019 65.8449 45.6405 66.9656 44.0388 67.283C43.1452 67.46 42.3933 67.1495 41.7708 66.4972C41.1203 65.8171 40.4593 65.1493 39.7983 64.4814C39.7004 64.3825 39.585 64.3009 39.4731 64.2194C38.3767 63.4127 37.8905 63.5307 37.3467 64.7745C36.8781 64.3287 36.6735 63.7753 36.663 63.1907C36.6508 62.5211 36.7242 61.8445 36.8186 61.1783C36.9358 60.3508 36.8239 59.6326 36.1402 59.0619C35.8359 58.8069 35.5911 58.7635 35.2816 59.0463C34.9563 59.3429 34.5891 59.6031 34.1047 59.4644C33.0503 59.1625 31.9924 58.8711 30.9572 58.5172C30.7071 58.4322 30.4221 58.1511 30.3504 57.903C30.2105 57.4225 30.6267 57.1102 31.167 57.2629C32.0413 57.5075 32.9052 57.7851 33.7742 58.0488C33.8477 58.0713 33.9229 58.0904 33.9981 58.1112L34.0977 57.9551C33.8582 57.8024 33.6361 57.6133 33.3773 57.5075C33.073 57.3826 32.739 57.3306 32.419 57.2473C31.863 57.1016 31.3034 56.9645 30.7508 56.8049C30.5532 56.7477 30.2857 56.6852 30.2035 56.5395C30.0759 56.3157 29.9797 55.9774 30.0636 55.7641C30.1248 55.6062 30.5305 55.4449 30.7264 55.4969C31.821 55.7849 32.8982 56.137 33.9736 56.4649C34.1082 56.2949 34.2499 56.1197 34.3758 55.9618C34.3356 55.8664 34.2341 55.7484 34.2534 55.653C34.4352 54.7648 35.1469 54.4872 35.9968 54.3242C35.8376 54.5757 35.6942 54.8377 35.5159 55.0736C35.3428 55.3026 35.1329 55.5021 34.8899 55.771C35.7012 55.6357 36.0597 55.1187 36.2835 54.5011C36.3482 54.3207 36.2975 54.031 36.1821 53.8783C36.1139 53.7864 35.8027 53.8194 35.6278 53.8749C35.1784 54.0189 34.7482 54.2166 34.3023 54.371C34.1712 54.4161 33.9246 54.4421 33.8792 54.3762C33.5836 53.9529 33.0975 53.9772 32.6901 53.8332C31.9312 53.5678 31.1495 53.3666 30.3976 53.0873C30.172 53.004 30.0129 52.7455 29.8241 52.5668C30.0426 52.3951 30.242 52.1297 30.4868 52.0776C30.812 52.0082 31.188 52.0533 31.515 52.1436C32.3229 52.3656 33.115 52.6484 33.9176 52.8912C34.0208 52.9225 34.1502 52.8704 34.2674 52.8566C34.1904 52.749 34.1345 52.5825 34.0313 52.546C33.4228 52.3344 32.8037 52.1522 32.2529 51.9805L32.2512 51.9787Z" fill="#FFF3DC"/>
<path d="M30.0496 63.3572C30.6319 62.8958 30.9711 62.292 31.1023 61.5617C31.1757 61.1436 31.0376 61.0361 30.6581 61.1887C30.1161 61.4056 29.5967 61.3414 29.0896 61.0812C28.7469 60.906 28.6629 60.6336 28.8238 60.297C28.9864 59.957 29.24 59.787 29.6299 59.9501C29.9674 60.0906 30.2979 60.2571 30.6476 60.3612C30.9764 60.4601 31.1932 60.3369 31.1775 59.9466C31.1652 59.6569 31.1757 59.3672 31.1757 59.0098C31.6514 59.1503 32.057 59.251 32.4435 59.3984C32.5519 59.4401 32.6743 59.6205 32.6743 59.7384C32.6743 60.1496 32.8894 60.1808 33.2234 60.1357C33.6028 60.0854 34.0015 60.0073 34.3635 60.0785C34.6258 60.1305 34.9406 60.3612 35.0472 60.5954C35.1294 60.7741 34.9913 61.2147 34.8251 61.2997C34.5978 61.416 34.2516 61.3206 33.9596 61.2841C33.8494 61.2703 33.755 61.1263 33.6431 61.1107C33.393 61.0777 33.0922 61.0083 32.8999 61.1141C32.7845 61.1783 32.746 61.5756 32.8247 61.7595C33.0713 62.3354 33.3913 62.8819 33.727 63.5255C33.6308 63.6695 33.435 63.9349 33.2724 64.2177C32.5554 65.4719 32.8177 66.7036 33.9613 67.5884C34.2114 67.7809 34.3722 67.7896 34.5506 67.5085C34.659 67.3385 34.8059 67.1148 34.9738 67.0766C35.2343 67.0159 35.5928 67.002 35.7869 67.139C35.9495 67.2535 36.0579 67.6664 35.9757 67.852C35.8306 68.1816 35.5736 68.5286 35.2693 68.7056C34.8269 68.9606 34.3058 69.0976 33.8039 69.2364C33.3178 69.37 33.2479 69.4879 33.5714 69.8904C33.8302 70.2148 34.1239 70.5115 34.4702 70.8931C34.0015 70.9365 33.5836 70.9955 33.1657 71.0059C32.8334 71.0128 32.732 71.1516 32.6743 71.4656C32.5869 71.9357 32.4435 72.4024 32.2669 72.8482C32.1427 73.1588 31.863 73.1588 31.7196 72.8725C31.5045 72.444 31.2859 71.9912 31.2107 71.5263C31.1443 71.1169 30.9886 71.0024 30.6144 70.9972C30.2385 70.992 29.8643 70.94 29.4166 70.9018C29.7698 70.4959 30.0758 70.1697 30.3521 69.821C30.6372 69.4602 30.5742 69.3717 30.1178 69.2416C29.6002 69.0959 29.0774 68.9397 28.5982 68.7056C28.3377 68.5772 28.1191 68.3031 27.9582 68.0463C27.7484 67.715 27.7152 67.342 28.1051 67.0835C28.4898 66.8303 28.8431 66.9395 29.1403 67.2483C29.6876 67.8139 29.7558 67.8156 30.3032 67.2258C31.0446 66.4243 31.1932 65.5153 30.7491 64.5299C30.5725 64.1379 30.3119 63.7857 30.0514 63.3537L30.0496 63.3572Z" fill="#FFF3DC"/>
<path d="M31.835 50.0965C33.0835 50.0063 33.9386 49.9282 34.6765 49.4269C35.1469 49.1077 35.1591 48.9463 34.729 48.5647C34.402 48.275 34.2114 47.9367 34.374 47.5064C34.5349 47.0762 34.9213 46.9496 35.3445 46.9236C36.2923 46.8663 37.0966 47.392 37.3764 48.2455C37.6684 49.1371 37.3484 50.0462 36.5458 50.5597C35.6995 51.1009 34.736 51.2866 33.762 51.4028C32.2407 51.5849 30.7228 51.5277 29.2417 51.1113C28.7923 50.9847 28.3482 50.7991 27.9477 50.5597C27.1136 50.0618 26.8076 49.1233 27.1206 48.2038C27.4179 47.3295 28.2363 46.8316 29.226 46.927C29.6334 46.9669 29.9849 47.1179 30.1196 47.5342C30.2525 47.9419 30.0951 48.2732 29.7751 48.5508C29.3152 48.9481 29.289 49.1753 29.8345 49.4217C30.5812 49.7599 31.3943 49.9542 31.835 50.0982V50.0965Z" fill="#FFF3DC"/>
<path d="M49.3161 36.9694C49.4385 36.6051 49.5032 36.416 49.5784 36.1939C49.4578 36.1558 49.3791 36.1072 49.3039 36.1107C47.6829 36.213 46.1476 35.8366 44.635 35.3057C44.1087 35.1201 43.5824 34.9084 43.0368 34.8044C42.2289 34.6482 41.7655 34.1018 41.3896 33.472C41.2637 33.2604 41.2811 32.9013 41.3703 32.6584C41.4053 32.563 41.8547 32.5231 42.054 32.6029C42.7465 32.8839 43.446 33.1771 44.0825 33.5605C45.9553 34.6881 48.0274 35.1184 50.1572 35.3768C50.2272 35.3855 50.2989 35.3959 50.3671 35.3872C51.6313 35.2016 52.2084 35.984 52.6421 36.9728C52.8187 37.3736 52.6928 37.6251 52.2626 37.5557C51.2904 37.4013 50.3303 37.1741 49.3126 36.9676L49.3161 36.9694Z" fill="#FFF3DC"/>
<path d="M29.8905 53.3458C30.6756 53.5938 31.3384 53.8055 32.0011 54.0102C32.4837 54.1594 32.9663 54.3051 33.4507 54.4474C33.7987 54.5497 34.1467 54.6573 34.0662 55.1274C33.9945 55.5437 33.5049 55.8872 33.0887 55.7935C32.6988 55.7068 32.3211 55.5628 31.9364 55.4518C31.3506 55.2818 30.7596 55.1309 30.179 54.9504C29.567 54.7596 29.2557 54.3103 29.4428 53.8367C29.5215 53.6355 29.7523 53.4915 29.8887 53.3458H29.8905Z" fill="#FFF3DC"/>
</g>
<defs>
<clipPath id="clip0_80_532">
<rect width="79" height="66" fill="white" transform="translate(27 15)"/>
</clipPath>
</defs>
</svg>
