<svg width="252" height="252" viewBox="0 0 252 252" fill="none" xmlns="http://www.w3.org/2000/svg">
<circle cx="126" cy="126" r="126" fill="#EFE1C5"/>
<mask id="mask0_147_1083" style="mask-type:alpha" maskUnits="userSpaceOnUse" x="0" y="0" width="252" height="252">
<circle cx="126" cy="126" r="126" fill="#EFE1C5"/>
</mask>
<g mask="url(#mask0_147_1083)">
<path d="M87 -48C-3.56134 -48 -77 25.4387 -77 116L251 116C251 25.4387 177.587 -48 87 -48Z" fill="#FFC329"/>
<path d="M-86 114L-86 252L166 252L169 111.5L-86 114Z" fill="#8D3232"/>
<path d="M16.5 56C-22.4361 56 -54 87.5639 -54 126.5C-54 165.436 -22.4361 197 16.5 197C55.4361 197 87 165.436 87 126.5C87 87.5639 55.4361 56 16.5 56Z" fill="#206012"/>
<path d="M273 248H180V341H273V248Z" fill="#FE862F"/>
<path d="M180 248H273V341L180 248Z" fill="#8D3232"/>
<path d="M87 248V341H180V248H87Z" fill="#206012"/>
<path d="M87 341V248H180L87 341Z" fill="#8D3232"/>
<path d="M99 126H0V405H99V126Z" fill="#FE862F"/>
<path d="M247.359 129.376C258.862 117.872 258.862 99.2219 247.359 87.7186C235.855 76.2153 217.205 76.2153 205.701 87.7186C194.198 99.2219 194.198 117.872 205.701 129.376C217.205 140.879 235.855 140.879 247.359 129.376Z" fill="#FFC329"/>
<path d="M255.224 207.933C258.994 192.108 249.221 176.223 233.396 172.453C217.571 168.683 201.686 178.455 197.916 194.28C194.146 210.106 203.918 225.991 219.743 229.761C235.569 233.531 251.454 223.758 255.224 207.933Z" fill="#FFC329"/>
<path d="M252 61V248H159V154.195C159 102.754 200.667 61 252 61Z" fill="#FE862F"/>
<path d="M201.953 188.016C201.953 188.016 204.136 232.248 178.773 257.199C153.411 282.164 110.051 279.95 110.051 279.95C110.051 279.95 107.808 237.283 133.171 212.317C158.534 187.352 201.953 188.002 201.953 188.002V188.016Z" fill="#206012"/>
</g>
<g clip-path="url(#clip0_147_1083)">
<path d="M142.419 99.8449C142.501 100.561 142.582 101.278 142.639 101.788C143.279 101.788 143.924 101.716 144.545 101.807C145.199 101.901 145.829 102.151 146.325 102.293C146.264 101.782 146.312 101.342 146.15 100.998C145.799 100.249 146.241 100.157 146.786 99.998C146.993 99.9376 147.131 99.6408 147.496 99.2326C147.553 99.8374 147.589 100.202 147.623 100.567C148.198 100.531 149.077 102.512 149.018 103.744C148.733 103.704 148.445 103.665 148.156 103.623C148.207 103.882 148.234 104.147 148.312 104.396C148.488 104.958 148.69 105.509 148.906 106.139C149.177 105.988 149.405 105.861 149.606 105.749C149.678 105.77 149.733 105.774 149.737 105.787C149.897 106.702 150.079 107.613 150.187 108.534C150.214 108.755 149.991 109.004 149.878 109.256C150.762 110.049 150.872 111.25 151.166 112.359C151.318 112.932 151.155 113.692 151.477 114.096C152.337 115.173 152.212 116.634 153.024 117.663C153.482 118.241 154.201 118.609 154.776 119.103C154.922 119.229 155.093 119.579 155.036 119.649C154.529 120.261 155.211 120.785 155.402 120.76C156.355 120.641 156.169 121.363 156.298 121.815C156.528 122.624 156.632 123.474 156.926 124.257C157.053 124.595 157.522 124.805 157.938 125.158C158.733 125.95 159.498 127.013 160.528 127.646C161.458 128.217 161.51 129.203 162.155 129.878C163.711 131.505 164.079 133.635 164.419 135.758C164.506 136.306 164.656 136.843 164.774 137.37C164.132 137.296 162.823 137.981 163.438 136.202C163.062 136.285 162.728 136.359 162.491 136.412C162.644 136.973 162.8 137.538 162.992 138.236C163.17 138.16 163.451 138.039 163.772 137.901V138.788C163.831 138.822 163.889 138.858 163.948 138.892C164.204 138.559 164.459 138.228 164.846 137.722C165.37 139.26 165.857 140.685 166.34 142.109C166.429 142.375 166.575 142.642 166.581 142.912C166.611 144.397 166.681 145.891 166.563 147.367C166.533 147.758 165.924 148.149 165.518 148.455C164.705 149.066 165.605 149.797 165.322 150.429C165.434 150.476 165.586 150.593 165.651 150.555C165.768 150.487 165.88 150.343 165.916 150.209C166.089 149.586 166.237 148.956 166.558 148.349C166.472 149.347 166.387 150.345 166.294 151.415C166.047 151.457 165.789 151.5 165.396 151.566C165.721 152.336 166.023 153.054 166.324 153.77C166.442 153.729 166.56 153.689 166.677 153.647C166.537 153.073 166.396 152.496 166.256 151.922C167.006 153.126 167.302 154.366 166.59 155.715C166.292 155.456 166.032 155.229 165.772 155.004C165.698 155.086 165.624 155.167 165.55 155.248C165.859 155.552 166.167 155.859 166.571 156.257C166.326 156.826 165.994 157.573 165.689 158.331C165.624 158.492 165.569 158.773 165.653 158.858C166.389 159.607 165.643 159.837 165.186 160.176C165.362 160.404 165.525 160.616 165.687 160.828L165.421 160.816C165.29 161.4 165.191 161.996 165.022 162.568C164.835 163.207 164.582 163.827 164.337 164.487C164.176 164.92 163.965 165.339 163.861 165.785C163.635 166.749 163.502 167.738 163.246 168.692C163.153 169.036 162.811 169.312 162.438 169.505C162.375 169.739 162.343 169.987 162.242 170.204C161.83 171.098 161.53 172.089 160.934 172.841C160.282 173.665 159.352 174.27 158.536 174.963C158.295 175.168 157.82 175.341 157.814 175.536C157.794 176.345 157.241 176.509 156.664 176.804C155.903 177.196 155.304 177.887 154.349 177.906C154.159 177.91 153.882 178.071 153.799 178.237C152.935 179.946 150.855 180.316 149.809 181.851C149.61 182.144 149.018 182.267 148.619 182.563C147.61 183.316 146.602 184.117 145.289 184.383C144.706 184.502 144.184 184.896 143.615 185.113C143.328 185.223 142.996 185.217 142.603 185.054C142.823 184.865 143.043 184.674 143.264 184.485L143.199 184.348C142.916 184.495 142.465 184.576 142.379 184.797C141.797 186.321 140.415 186.54 139.109 186.84C138.282 187.03 137.418 187.048 136.574 187.167C136.205 187.22 135.849 187.345 135.482 187.419C135.084 187.498 134.668 187.651 134.283 187.6C133.881 187.547 133.505 187.288 132.956 187.05C133.089 187.555 133.171 187.865 133.25 188.165C132.488 188.825 131.324 188.415 130.702 189.256C129.956 188.802 129.284 189.056 128.817 189.638C127.597 191.161 125.881 191.766 124.139 192.411C123.072 192.806 122.095 193.444 121.023 194.002C120.749 192.932 119.981 193.034 119.108 193.216C117.918 193.463 116.707 193.652 115.927 192.322C115.853 192.197 115.506 192.206 115.284 192.199C114.756 192.178 114.2 192.286 113.701 192.159C112.465 191.849 111.262 191.411 110.034 191.074C109.218 190.851 108.698 190.403 108.641 189.772C108.019 189.575 107.499 189.515 107.096 189.267C105.565 188.319 104.369 187.054 103.665 185.368C103.595 185.198 103.481 185.034 103.354 184.899C102.188 183.661 101.811 182.134 101.591 180.503C101.48 179.681 101.071 178.902 100.85 178.09C100.63 177.279 100.476 176.451 100.251 175.432C99.4915 175.069 99.4535 174.812 99.6661 173.593C99.7667 173.02 99.5902 172.353 99.3852 171.782C98.2617 168.666 97.0167 165.591 95.9653 162.451C95.4851 161.015 95.2878 159.469 95.1018 157.957C95.0391 157.452 95.4529 156.904 95.5762 156.36C95.6863 155.87 95.8381 155.324 95.7281 154.859C95.265 152.903 94.7108 150.969 94.335 148.975C94.6444 149.735 94.9556 150.495 95.265 151.256C95.7281 149.914 95.8116 148.714 94.7336 147.626C94.4641 147.353 94.6197 146.648 94.6045 146.142C94.5761 145.259 94.6197 144.373 94.5362 143.498C94.4546 142.634 94.2705 141.778 94.1016 140.923C93.7771 139.273 93.3557 137.637 93.1261 135.973C93.0217 135.214 93.2703 134.405 93.3747 133.62C93.4032 133.41 93.5588 133.201 93.536 133.004C93.3406 131.411 93.1774 129.812 92.8889 128.235C92.5074 126.149 92.0766 124.068 91.5604 122.012C91.1751 120.481 90.4122 119.018 90.2034 117.474C90.0155 116.069 89.8542 114.629 89.8333 113.174C89.8106 111.597 90.657 110.541 91.0119 109.231C91.2377 108.399 91.6173 107.611 91.9267 106.802C92.0083 106.832 92.0899 106.861 92.1696 106.891C92.0633 107.509 91.957 108.129 91.8356 108.836C92.0026 108.974 92.2341 109.163 92.5112 109.392C92.1867 109.962 92.4277 110.822 91.5357 111.115C91.4294 111.151 91.3269 111.371 91.3213 111.51C91.27 112.918 91.1941 114.327 91.2226 115.733C91.2396 116.58 91.456 117.421 91.5319 118.269C91.6021 119.033 92.0254 119.373 92.7446 119.433C92.8699 119.445 92.9971 119.428 93.1204 119.441C93.5076 119.483 94.0428 120.002 94.2269 119.365C94.3749 118.851 94.3654 118.105 94.0845 117.689C93.0122 116.101 92.9325 116.116 93.9801 114.504C94.3616 113.916 94.4242 113.504 94.0959 112.824C93.3463 111.27 93.1774 109.669 94.4888 108.242C94.5931 108.129 94.7241 107.987 94.7336 107.849C94.8323 106.581 94.8835 105.311 95.0012 104.045C95.0448 103.572 95.2365 103.115 95.3428 102.646C95.4719 102.077 95.7034 101.497 95.673 100.934C95.6218 99.981 96.0298 99.448 96.8801 99.1702C97.5177 98.9604 98.1383 98.7789 97.6658 97.8812C97.588 97.7337 97.6658 97.4124 97.7891 97.2669C98.7172 96.1707 98.5198 94.8155 98.7817 93.5492C99.0816 92.1033 98.2389 91.1412 97.7986 89.9127C98.0491 89.7993 98.3186 89.6783 98.7305 89.4931C98.4287 89.4704 98.2503 89.4572 97.9372 89.4345C98.0169 88.308 98.0985 87.1797 98.1706 86.1609C97.8404 85.8623 97.2786 85.5145 97.3261 85.3671C97.4798 84.8984 97.8366 84.6602 98.4781 84.5733C99.0986 84.4882 99.6623 83.8173 100.198 83.3447C100.558 83.0272 100.755 82.4243 101.154 82.2636C102.494 81.7269 102.786 80.5796 103.147 79.4059C103.219 79.1677 103.625 79.0316 103.91 78.8256C103.498 78.3493 103.219 77.9146 103.843 76.9393C104.54 75.8507 104.874 74.4558 104.559 72.9305C104.382 72.0743 104.424 71.1671 103.568 70.9214C102.667 70.6625 102.623 70.0142 102.448 69.4075C102.262 68.7611 102.359 68.2564 103.225 68.0088C104.665 67.593 105.931 66.8105 106.705 65.461C106.836 65.2342 106.83 64.7787 106.686 64.567C105.658 63.0663 104.314 61.9058 102.682 61.0818C102.541 61.0099 102.437 60.8663 102.317 60.7567C102.372 60.6848 102.427 60.613 102.483 60.5431C103.513 61.1517 104.599 61.6866 105.557 62.3935C106.168 62.8433 106.857 62.7469 107.455 62.9964C108.389 63.3838 109.237 63.9754 109.987 64.4045C109.839 64.8864 109.529 65.3665 109.662 65.6141C109.803 65.8787 110.362 66.0469 110.734 66.0413C111.385 66.0299 112.036 65.8712 112.682 65.7407C114.105 65.4516 114.236 65.2947 114.371 64.0038C115.234 64.155 116.107 64.2911 116.975 64.465C117.578 64.5859 118.081 64.7636 118.546 65.3212C118.958 65.8145 119.789 66.0167 120.476 66.2C120.856 66.3021 121.315 66.1036 121.776 66.0356C121.757 65.8882 121.734 65.7029 121.712 65.5177C121.776 65.4686 121.841 65.4175 121.905 65.3684C122.628 66.0035 123.351 66.6404 124.076 67.2755C124.033 67.3416 123.989 67.4059 123.945 67.472C123.752 67.3756 123.56 67.2793 123.366 67.181C123.321 67.2339 123.275 67.2868 123.23 67.3416C124.391 68.383 125.553 69.4226 126.716 70.464C126.773 70.4111 126.83 70.3582 126.887 70.3033L126.547 69.7118C126.589 69.6645 126.629 69.6154 126.671 69.5681C127.373 70.1956 128.075 70.8212 128.777 71.4487C128.756 71.5224 128.736 71.5961 128.715 71.6699C128.521 71.6396 128.303 71.6528 128.138 71.5678C127.95 71.4695 127.83 71.1955 127.644 71.1501C127.272 71.0575 126.876 71.0688 126.488 71.0386C126.674 71.409 126.785 71.857 127.065 72.131C127.502 72.5601 128.052 72.87 128.705 73.3388C128.641 72.7963 128.593 72.4013 128.525 71.8305C128.851 71.942 129.176 71.9553 129.244 72.0932C129.671 72.9551 130.066 73.8359 130.423 74.728C130.753 75.5483 131.022 76.3931 131.243 77.0149C130.859 76.8751 130.292 76.671 129.726 76.4649C129.669 76.7333 129.612 77.0017 129.538 77.3533C130.231 77.3533 131.121 76.8581 130.943 78.0828C130.941 78.0961 131.508 78.1924 131.812 78.2491C131.859 78.1679 131.909 78.0885 131.956 78.0072C132.774 79.472 133.592 80.9368 134.456 82.4848C133.11 82.4318 133.416 80.6628 132.235 80.4605C132.066 80.7081 131.859 81.0105 131.586 81.4112C131.778 81.5435 132.117 81.8667 132.52 82.0425C133.192 82.3336 133.376 82.7343 132.825 83.2087C132.345 83.6226 132.507 83.9099 132.81 84.2123C133.125 84.5298 133.362 84.6432 133.903 84.2784C134.526 83.8569 134.533 83.4506 134.38 82.8439C134.456 82.8231 134.532 82.8023 134.607 82.7815C135.101 83.4733 135.596 84.1669 136.152 84.9456C136.126 85.008 136.037 85.2178 135.938 85.4503C136.919 86.0778 137.919 86.5956 138.756 87.3063C139.2 87.6824 139.303 88.4309 139.663 88.9412C140.337 89.8976 141.085 90.801 141.709 91.9067C141.506 91.8179 141.301 91.6591 141.098 91.661C140.916 91.6629 140.734 91.8424 140.574 92.0333C142.394 92.039 141.544 93.9215 142.368 94.5622C142.466 94.5188 142.565 94.4772 142.666 94.4337C142.394 93.6947 142.123 92.9557 141.852 92.2167C141.907 92.1902 141.964 92.1637 142.019 92.1373C142.609 93.0785 143.265 93.9877 143.749 94.9818C143.894 95.2767 143.552 95.8059 143.413 96.3011C143.455 96.3521 143.66 96.5959 143.867 96.836C144.087 97.0911 144.313 97.3406 144.672 97.747C144.607 97.9379 144.476 98.3272 144.321 98.7941C143.717 98.4293 143.901 97.2801 142.744 97.7054C142.861 98.3272 142.986 98.9812 143.133 99.7561C142.905 99.7901 142.649 99.8298 142.392 99.8676C142.18 99.5123 141.965 99.157 141.774 98.8394C141.163 99.2912 140.72 99.62 140.278 99.9489C140.278 100.026 140.276 100.106 140.274 100.183C140.514 100.183 140.758 100.219 140.988 100.176C141.466 100.087 141.937 99.9583 142.41 99.8449H142.419ZM160.384 130.345V132.078C160.758 131.828 161.045 131.634 161.394 131.401C161.851 132.498 163.256 133.091 162.491 134.688C162.844 134.546 163.221 134.503 163.278 134.346C163.358 134.119 163.269 133.775 163.138 133.545C162.447 132.32 161.72 131.114 161.001 129.893C160.836 130.016 160.595 130.195 160.356 130.375V129.772C160.031 129.443 159.805 129.281 159.672 129.063C159.452 128.7 159.392 128.166 159.086 127.944C158.475 127.5 157.744 127.217 156.96 126.816C156.719 127.37 156.505 127.859 156.258 128.423C156.85 128.527 157.296 129.158 157.828 128.4C157.894 128.305 158.784 128.532 158.826 128.714C159.025 129.606 159.703 129.961 160.382 130.35L160.384 130.345ZM93.333 127.786C93.6594 127.345 94.0845 127.035 94.0674 126.75C93.9858 125.291 93.7904 123.837 93.6385 122.42C93.1432 124.036 92.9458 125.743 93.3311 127.786H93.333ZM150.187 113.533C150.107 112.739 150.039 112.064 149.969 111.388C149.853 111.38 149.737 111.371 149.621 111.363C149.507 112.004 149.394 112.646 149.278 113.3C149.574 113.376 149.842 113.444 150.185 113.533H150.187Z" fill="#FFF3DC"/>
<path d="M121.152 65.5253C120.356 65.0944 119.569 64.6445 118.762 64.2382C117.916 63.811 117.05 63.4235 116.126 62.9869C115.971 63.2667 115.843 63.4991 115.693 63.7694C115.067 63.4424 114.405 63.0739 113.818 63.8583C112.676 62.0155 107.292 58.5094 105.927 58.8231C106.185 59.3183 106.43 59.7927 106.677 60.2653C106.635 60.322 106.593 60.3768 106.55 60.4335C105.413 59.8211 104.276 59.2068 102.997 58.517C103.392 57.984 103.735 57.519 104.079 57.0541C104.287 57.2563 104.496 57.4585 104.779 57.7307C105.179 56.7006 105.563 55.3284 107.381 56.4984C106.726 55.2906 105.971 55.4777 105.305 56.0769C104.904 56.436 104.141 56.3925 103.405 56.5608C102.353 58.8345 102.727 58.6776 104.826 60.441C104.365 60.269 104.086 60.2464 103.942 60.097C103.272 59.3996 102.477 59.0972 101.509 59.1293C100.909 59.1501 100.569 58.8591 100.222 58.2788C99.9185 57.7704 99.11 57.5625 98.5293 57.2128C98.2806 57.0635 97.8138 56.8178 97.8384 56.7498C98.1535 55.8274 96.231 55.3549 97.2957 54.4136C98.275 53.5461 99.3966 52.8071 100.81 52.8128C101.676 52.8165 102.547 52.9243 103.401 52.8392C104.54 52.7258 105.697 52.5765 106.789 52.2495C108.43 51.76 108.713 51.9301 109.524 53.3628C110.355 54.8276 111.264 56.3415 112.475 57.4812C114.858 59.7266 117.476 61.7244 119.99 63.8318C120.478 64.2401 120.937 64.6842 121.408 65.1133C121.322 65.2512 121.239 65.3892 121.154 65.5253H121.152ZM108.994 55.4551C108.711 55.13 108.485 54.631 108.132 54.5119C107.07 54.1585 105.957 53.9525 104.851 53.686C104.851 53.8069 104.743 54.166 104.876 54.3418C105.081 54.614 105.69 54.9618 105.716 54.9315C106.476 54.0394 106.878 54.9674 107.4 55.0978C107.639 54.9977 107.897 54.9448 108.119 55.0109C108.432 55.1054 108.717 55.2906 109.013 55.4362C109.144 55.8633 109.15 56.4095 109.427 56.6987C110.408 57.7231 111.433 58.7173 112.534 59.6094C113.351 60.2728 114.312 60.7642 115.209 61.3331C115.227 61.2991 115.242 61.2632 115.259 61.2292C113.169 59.3032 111.082 57.3791 108.994 55.4532V55.4551Z" fill="#FFF3DC"/>
<path d="M97.1609 81.9404C96.9313 81.8232 96.7036 81.7041 96.4739 81.5869L96.3202 81.7419C96.8174 82.2976 97.3128 82.8533 97.8024 83.4014C96.9693 84.0213 96.6428 83.9287 95.9482 83.2388C94.4356 81.7343 92.7693 80.4642 90.5621 80.0919C90.2376 80.0371 89.9757 79.6061 89.6853 79.351C90.0649 79.162 90.4748 78.767 90.8164 78.818C92.1791 79.0183 93.5873 79.1922 94.8475 79.7006C95.804 80.0862 96.5593 80.9651 97.4039 81.6247C97.3223 81.7306 97.2407 81.8364 97.1609 81.9423V81.9404Z" fill="#FFF3DC"/>
<path d="M95.7147 57.1391C96.5574 57.4472 97.2729 57.7099 98.0415 57.9915C97.9732 58.9441 98.3774 59.3164 99.723 59.5035C100.004 59.5432 100.357 59.8173 100.467 60.0743C100.55 60.2671 100.298 60.6036 100.194 60.8757C99.8406 60.7415 99.3681 60.7056 99.1593 60.4524C98.4552 59.6037 98.125 59.5584 97.1381 59.9458C96.8269 60.0687 96.2233 59.7228 95.8836 59.4374C95.5022 59.1161 95.1586 58.6568 95.0049 58.1918C94.8816 57.8195 95.0638 57.3451 95.1093 56.9161C95.1605 56.4398 95.1492 55.9446 95.2782 55.491C95.3655 55.1848 95.6027 54.7973 95.8665 54.7028C96.0696 54.631 96.5289 54.8918 96.6731 55.1262C96.9863 55.6365 96.472 56.7762 95.7147 57.1391Z" fill="#FFF3DC"/>
<path d="M91.0688 64.9355C90.6968 65.2133 90.4767 65.5063 90.2205 65.5422C89.6094 65.6254 88.0323 64.3156 88 63.6975C87.9848 63.4064 88.1291 63.0284 88.3378 62.8356C88.4403 62.7393 88.8654 62.949 89.1216 63.0681C89.4993 63.242 89.9168 63.397 90.2091 63.6748C90.5279 63.9772 90.7215 64.4082 91.0688 64.9355Z" fill="#FFF3DC"/>
<path d="M93.8264 60.1934C94.1472 60.4617 94.4261 60.698 94.707 60.9343C94.8209 60.7774 94.9348 60.6224 95.0695 60.4391C95.7679 60.6678 95.6768 61.3765 95.3181 61.6752C94.9898 61.9492 94.1453 62.0229 93.8131 61.7867C93.2723 61.3992 93.3444 60.715 93.8245 60.1934H93.8264Z" fill="#FFF3DC"/>
<path d="M93.0692 103.891C92.887 102.744 92.7048 101.595 92.5226 100.448C92.6061 100.438 92.6915 100.429 92.775 100.419C92.9648 101.569 93.1565 102.718 93.3463 103.867C93.2533 103.874 93.1622 103.884 93.0692 103.891Z" fill="#FFF3DC"/>
</g>
<defs>
<clipPath id="clip0_147_1083">
<rect width="79" height="142" fill="white" transform="translate(88 52)"/>
</clipPath>
</defs>
</svg>
