<svg width="42" height="161" viewBox="0 0 42 161" fill="none" xmlns="http://www.w3.org/2000/svg">
<mask id="mask0_699_18" style="mask-type:alpha" maskUnits="userSpaceOnUse" x="0" y="0" width="42" height="161">
<rect width="42" height="161" fill="#D9D9D9"/>
</mask>
<g mask="url(#mask0_699_18)">
<g opacity="0.5">
<path d="M81 121.172H41.5V160.672H81V121.172Z" fill="#FE862F"/>
<path d="M41.5 121.172H81V160.672L41.5 121.172Z" fill="#8D3232"/>
<path d="M2 121.172L2 160.672H41.5V121.172H2Z" fill="#206012"/>
<path d="M2 160.672V121.172H41.5L2 160.672Z" fill="#8D3232"/>
<path d="M81 2.67183H41.5V121.172H81V2.67183Z" fill="#FE862F"/>
<path d="M41.5 41.7471V121.172H2V81.3297C2 59.4814 19.6973 41.7471 41.5 41.7471Z" fill="#8D3232"/>
<path d="M41.4801 3.10351C41.4801 3.10351 42.4072 21.8902 31.6349 32.4875C20.8626 43.0911 2.4463 42.1505 2.4463 42.1505C2.4463 42.1505 1.49396 24.0285 12.2662 13.4249C23.0385 2.82133 41.4801 3.09723 41.4801 3.09723V3.10351Z" fill="#206012"/>
</g>
</g>
</svg>
