<svg width="37" height="144" viewBox="0 0 37 144" fill="none" xmlns="http://www.w3.org/2000/svg">
<mask id="mask0_811_71" style="mask-type:alpha" maskUnits="userSpaceOnUse" x="0" y="0" width="37" height="144">
<rect width="37" height="144" fill="#D9D9D9"/>
</mask>
<g mask="url(#mask0_811_71)">
<g opacity="0.5">
<path d="M37 108.294H0V144.555H37V108.294Z" fill="#FE862F"/>
<path d="M0 108.294H37V144.555L0 108.294Z" fill="#8D3232"/>
<path d="M37 -0.489983H0V108.294H37V-0.489983Z" fill="#FE862F"/>
<path d="M29.9248 20.5079C31.4248 14.3375 27.5367 8.14378 21.2407 6.6738C14.9446 5.20381 8.62473 9.01424 7.1248 15.1846C5.62487 21.3549 9.51289 27.5486 15.8089 29.0186C22.105 30.4886 28.4249 26.6782 29.9248 20.5079Z" fill="#FFC329"/>
<path d="M26.7986 62.0414C31.3752 57.5562 31.3752 50.2843 26.7986 45.7991C22.222 41.3139 14.8019 41.3139 10.2253 45.7991C5.64876 50.2843 5.64877 57.5562 10.2254 62.0414C14.8019 66.5266 22.222 66.5266 26.7986 62.0414Z" fill="#FFC329"/>
<path d="M29.9278 92.6715C31.4277 86.5011 27.5397 80.3074 21.2436 78.8374C14.9476 77.3674 8.62766 81.1778 7.12773 87.3482C5.6278 93.5185 9.51583 99.7122 15.8119 101.182C22.1079 102.652 28.4278 98.8418 29.9278 92.6715Z" fill="#FFC329"/>
<path d="M-0.0186278 -0.093693C-0.0186278 -0.093693 0.849825 17.1526 -9.24067 26.881C-19.3312 36.6151 -36.5819 35.7517 -36.5819 35.7517C-36.5819 35.7517 -37.474 19.1155 -27.3835 9.38141C-17.293 -0.352729 -0.0186278 -0.0994551 -0.0186278 -0.0994551V-0.093693Z" fill="#206012"/>
</g>
</g>
</svg>
