<svg width="834" height="132" viewBox="0 0 834 132" fill="none" xmlns="http://www.w3.org/2000/svg">
<rect width="834" height="132" fill="#8D3232"/>
<mask id="mask0_543_3" style="mask-type:alpha" maskUnits="userSpaceOnUse" x="0" y="14" width="60" height="118">
<rect y="14" width="59.0791" height="118" fill="#D9D9D9"/>
</mask>
<g mask="url(#mask0_543_3)">
<path d="M1.64784 26.3198C-27.0173 26.3198 -50.2626 49.9275 -50.2626 79.0394L53.5583 79.0394C53.5584 49.9275 30.3213 26.3198 1.64784 26.3198Z" fill="#FFC329"/>
<path d="M-50.2624 79.0394L-50.2625 131.759L53.5585 131.759L53.5585 79.0394L-50.2624 79.0394Z" fill="#FE862F"/>
<path d="M1.85401 49.7508C-14.1872 49.7508 -27.1912 62.9574 -27.1912 79.2487C-27.1912 95.5399 -14.1872 108.747 1.85401 108.747C17.8952 108.747 30.8992 95.5399 30.8992 79.2487C30.8992 62.9574 17.8952 49.7508 1.85401 49.7508Z" fill="#FFF3DC"/>
</g>
<path d="M834 65.246H803.682V131.689H834V65.246Z" fill="#FE862F"/>
<path d="M828.313 83.1117C829.544 77.8617 826.352 72.5918 821.183 71.3411C816.013 70.0904 810.824 73.3325 809.593 78.5825C808.361 83.8324 811.553 89.1023 816.723 90.353C821.892 91.6037 827.081 88.3617 828.313 83.1117Z" fill="#FFC329"/>
<path d="M825.746 118.45C829.504 114.634 829.504 108.447 825.746 104.631C821.988 100.814 815.896 100.814 812.138 104.631C808.381 108.447 808.381 114.634 812.138 118.45C815.896 122.266 821.988 122.266 825.746 118.45Z" fill="#FFC329"/>
<path d="M803.727 65.5831C803.727 65.5831 804.44 80.2569 796.156 88.5342C787.871 96.8164 773.707 96.0818 773.707 96.0818C773.707 96.0818 772.975 81.9271 781.259 73.6449C789.544 65.3627 803.727 65.5782 803.727 65.5782V65.5831Z" fill="#FFB22B"/>
<path d="M803.682 86.8535V131.689H773.364V109.198C773.364 96.8646 786.947 86.8535 803.682 86.8535Z" fill="#206012"/>
</svg>
