<svg width="74" height="75" viewBox="0 0 74 75" fill="none" xmlns="http://www.w3.org/2000/svg">
<ellipse cx="37.1407" cy="37.4514" rx="36.4615" ry="37.4514" fill="#ECE0C7"/>
<path d="M53.2141 26.971C50.9825 26.971 48.919 26.2332 47.2682 24.9935C45.3729 23.5713 44.0049 21.4798 43.5234 19.0764C43.4011 18.4832 43.34 17.8671 43.3323 17.2358H36.9509V34.5842L36.9432 44.0836C36.9432 46.6238 35.2771 48.7762 32.9768 49.5368C32.3042 49.7573 31.5858 49.8638 30.8369 49.8182C29.8739 49.7649 28.9797 49.4759 28.1926 49.012C26.5265 48.0232 25.403 46.2283 25.3725 44.1672C25.3266 40.9577 27.9327 38.3337 31.1578 38.3337C31.7922 38.3337 32.4036 38.4402 32.9768 38.6227V33.8845V32.1884C32.373 32.0972 31.7616 32.0515 31.1349 32.0515C27.6041 32.0515 24.3025 33.5118 21.941 36.1433C20.1603 38.1284 19.0903 40.6686 18.9222 43.3306C18.7082 46.8216 19.9922 50.1452 22.4836 52.5942C22.8504 52.9517 23.2326 53.2863 23.6376 53.5981C25.7699 55.2333 28.3836 56.1232 31.1349 56.1232C31.754 56.1232 32.373 56.0776 32.9768 55.9863C35.5446 55.606 37.9138 54.4348 39.7862 52.5942C42.0866 50.3353 43.3553 47.3311 43.3706 44.1368L43.34 29.9448C44.4329 30.789 45.6327 31.4811 46.9243 32.0211C48.9266 32.8653 51.0513 33.2836 53.2294 33.2836V28.6746V26.9634C53.237 26.971 53.2141 26.971 53.2141 26.971Z" fill="#232323"/>
</svg>
