<svg width="179" height="148" viewBox="0 0 179 148" fill="none" xmlns="http://www.w3.org/2000/svg">
<path d="M94.563 -50.5877C78.9594 -24.5344 63.3559 1.51891 47.9706 27.208C49.1927 26.3907 50.8527 25.0688 52.699 24.1041C54.9222 22.9448 55.2614 20.75 56.1081 18.8095C61.782 5.80576 69.1604 -6.21244 77.3119 -17.7775C85.6274 -29.5774 94.5936 -40.852 104.607 -51.2702C105.089 -51.772 105.616 -52.2308 106.413 -52.4754C105.378 -51.1479 104.347 -49.8191 103.309 -48.4944C92.3746 -34.5301 83.7296 -19.1119 74.7231 -3.90359C70.1615 3.79995 64.8407 11.0545 59.8648 18.5134C59.7202 18.7303 59.5923 18.9582 59.5895 19.3127C63.1362 17.0275 66.8511 15.4011 69.2077 11.2297C79.9674 -7.82348 92.4594 -25.6742 108.173 -41.0521C112.067 -44.8636 116.419 -48.2052 120.561 -51.7637C120.707 -51.5983 120.853 -51.4329 120.999 -51.2689C117.94 -47.9634 114.826 -44.7065 111.832 -41.3427C104.436 -33.0289 98.3113 -23.7977 92.4789 -14.3552C87.4598 -6.22773 82.6757 2.06797 76.297 9.46571C77.4968 8.84019 78.6494 8.09236 79.9034 7.61002C85.5342 5.44436 89.1797 1.5342 92.1035 -3.81602C96.8097 -12.43 103.475 -19.7249 110.381 -26.6584C118.191 -34.5009 126.344 -42.0029 134.661 -49.3034C120.897 -32.5938 107.133 -15.8829 93.5383 0.61956C96.1674 -0.980362 99.6668 -1.50996 102.012 -4.80016C110.001 -16.0066 120.299 -24.9639 131.274 -33.0928C137.313 -37.5659 143.822 -41.4038 150.13 -45.51C150.643 -45.8436 151.242 -46.0479 151.94 -46.0576C149.289 -44.2464 146.497 -42.6076 144.018 -40.5865C139.081 -36.5623 134.066 -32.5799 129.534 -28.1235C121.222 -19.9501 113.381 -11.2902 104.045 -4.02453C105.762 -4.75985 107.607 -5.28946 109.177 -6.26387C127.655 -17.733 147.947 -24.654 168.802 -30.1849C171.67 -30.9452 174.549 -31.6653 177.429 -32.3881C177.596 -32.4298 177.799 -32.3255 178.419 -32.2046C154.881 -22.5036 132.477 -11.0414 108.184 -4.2094C111.284 -4.45683 114.386 -4.91971 117.485 -4.90998C124.435 -4.88913 131.395 -4.80434 138.333 -4.43181C147.477 -3.93974 156.577 -4.03704 165.654 -5.28807C166.148 -5.35618 166.652 -5.35061 167.256 -4.87244C162.942 -3.90359 158.673 -2.55805 154.305 -2.04791C145.689 -1.04014 137.023 0.000999451 128.37 0.0816193C121.477 0.145561 114.535 -0.967854 107.688 -2.02845C104.878 -2.46352 102.605 -2.30645 100.301 -0.385429C113.911 -0.890011 126.695 3.78188 139.971 4.87722C143.793 5.19276 147.622 5.44296 151.447 5.72931C151.978 5.76962 152.506 5.84329 153.034 5.90167C153.031 6.13103 153.029 6.36038 153.026 6.58835C146.822 6.7204 140.619 7.00953 134.418 6.94836C123.607 6.84133 112.872 5.84747 102.329 3.3051C100.231 2.79913 97.954 1.37296 96.1215 1.8275C93.2797 2.53363 90.7479 4.49358 88.1925 6.33675C89.3423 6.19636 90.4907 6.04901 91.6419 5.91835C98.5198 5.13715 105.227 6.43684 111.902 7.74624C125.82 10.4749 139.848 11.6856 154.076 11.5521C152.022 11.8538 149.974 12.1943 147.915 12.4445C145.832 12.6989 143.744 12.938 141.65 13.0562C125.703 13.9541 109.787 13.7359 93.9401 11.5521C90.5742 11.0879 87.2555 10.2872 83.8909 9.80488C82.8551 9.65614 81.626 9.80766 80.6876 10.2497C78.8301 11.1254 77.1145 12.3014 74.8051 13.6692C87.9312 12.9936 99.7711 17.0553 111.975 18.2465C117.95 18.8303 123.932 19.3335 129.983 20.0466C128.232 20.2551 126.488 20.5387 124.73 20.661C107.558 21.8537 90.5672 20.6151 73.825 16.5715C71.8062 16.0836 70.263 16.1879 68.6377 17.4278C67.2154 18.5106 65.6401 19.3919 64.4598 20.1509C67.638 20.1509 71.0833 19.852 74.4576 20.212C81.8638 21.0029 89.245 22.058 96.6179 23.1325C111.092 25.2411 125.599 25.6985 140.163 24.264C140.941 24.1875 141.735 24.2542 142.522 24.2542C142.547 24.453 142.574 24.6518 142.599 24.8506C135.534 25.7902 128.494 27.0649 121.399 27.5806C113.172 28.1783 104.896 28.3159 96.6415 28.2798C84.7376 28.2283 72.9407 26.912 61.3357 24.1806C59.6479 23.783 58.2979 23.8984 56.9423 25.041C55.7508 26.0446 54.3813 26.8397 52.7241 27.9767C56.3167 27.9767 59.4894 27.664 62.5787 28.0379C70.4075 28.9845 78.185 30.3565 86.0111 31.3378C94.189 32.3637 102.4 33.1337 110.682 33.7787C109.186 33.9914 107.693 34.2333 106.193 34.4084C104.685 34.5849 103.17 34.7559 101.654 34.8254C86.1251 35.5454 70.662 35.166 55.3671 32.0189C54.658 31.873 53.8767 31.848 53.2594 31.5199C49.1079 29.3195 46.615 32.1579 43.5702 34.5933C52.3876 33.8635 60.6698 35.387 68.9811 36.3948C84.2677 38.2504 99.5709 38.7898 114.997 37.7681C110.267 38.6077 105.552 39.5612 100.801 40.2618C89.3743 41.9479 77.8444 42.6652 66.3409 41.9146C57.7807 41.3558 49.2803 39.7962 40.7784 38.5215C39.2129 38.2866 38.0465 38.3227 36.8522 39.4125C35.5953 40.5593 34.1772 41.5281 32.3253 42.9668C35.6009 42.6054 38.205 42.1397 40.8202 42.0647C48.713 41.8381 56.3403 43.7438 64.0051 45.2479C76.4666 47.6929 89.0003 49.3651 101.79 49.5305C100.191 49.7807 98.5921 50.2367 96.9919 50.2478C85.9847 50.3284 74.972 50.5327 63.9718 50.2756C52.3821 50.0031 40.8744 48.659 29.4807 46.4252C28.8161 46.2945 27.911 46.5559 27.3396 46.952C25.9952 47.8847 24.7842 49.0107 23.9111 49.7335C29.4835 50.1338 35.3896 50.213 41.1844 51.054C49.9212 52.3203 58.5593 54.2441 67.278 55.6522C75.1764 56.9283 83.1262 57.8874 91.0955 59.39C82.2809 59.5513 73.4579 60.0239 64.653 59.7973C52.0456 59.4734 39.5355 57.9722 27.2256 55.0865C26.5207 54.9211 25.7324 54.9113 25.1248 54.575C19.5969 51.5099 16.7815 55.6731 13.1208 59.0689C15.3439 58.7047 17.0763 58.3531 18.8253 58.1459C26.0828 57.2841 33.0747 59.0161 40.1139 60.345C49.9768 62.2076 59.8522 64.0007 68.9797 65.6869C65.4914 65.9523 61.1244 66.4833 56.7477 66.5848C41.2762 66.9434 25.8923 66.1761 10.7851 62.4147C10.2554 62.2827 9.44759 62.3605 9.06803 62.6872C6.9895 64.472 5.00273 66.3652 2.61694 68.5614C15.2091 65.7077 27.0977 68.4196 39.0545 69.6276C49.1301 70.6451 59.228 71.4388 69.3231 72.252C71.5476 72.4313 73.7999 72.2784 76.0912 72.5494C70.6926 73.2444 65.312 74.1952 59.8926 74.5775C50.6469 75.2294 41.3791 75.8188 32.1168 75.8924C21.25 75.9786 10.4069 75.2127 -0.245728 72.7468C-0.810196 72.6161 -1.66664 72.8677 -2.11293 73.257C-4.95335 75.7354 -7.71592 78.3028 -10.5035 80.8396C-10.3242 81.0189 -10.1434 81.1982 -9.96407 81.3761C-6.79135 80.5894 -3.65201 79.3342 -0.440369 79.1076C7.49141 78.5474 15.4691 78.0359 23.405 78.2708C37.1692 78.6781 50.9125 79.3898 64.6336 77.63C64.9033 77.5952 65.1813 77.6258 65.572 77.94C65.0423 78.1499 64.5265 78.4042 63.9829 78.5641C48.7603 83.0372 33.2276 85.7547 17.3571 85.909C7.5929 86.0049 -2.17688 85.3669 -11.9467 85.1473C-12.7948 85.1278 -13.8681 85.5698 -14.4743 86.1648C-16.322 87.9774 -17.9918 89.9707 -19.8673 92.0432C-16.461 91.1439 -13.3356 89.8984 -10.1142 89.5551C-3.57137 88.8586 3.02013 88.5667 9.59774 88.2609C18.1357 87.8634 26.7112 87.9662 35.213 87.2017C43.5994 86.4483 51.9121 84.8818 60.3986 83.6502C55.8134 85.15 51.3407 86.7875 46.7693 88.076C30.2621 92.7257 13.4475 95.6003 -3.71319 96.1549C-9.71937 96.3495 -15.7395 96.1174 -21.7512 96.1952C-22.6021 96.2063 -23.6462 96.6734 -24.2524 97.2794C-25.6232 98.6514 -26.7744 100.242 -28.3205 102.111C-25.4578 101.306 -23.0678 100.31 -20.5917 100.001C-13.9918 99.1782 -7.36694 98.3011 -0.730949 98.0718C19.7429 97.3615 40.2112 96.7915 60.1567 91.2926C60.2207 91.5192 60.2846 91.7457 60.3486 91.9723C54.0407 94.0351 47.7996 96.3356 41.4138 98.1149C24.21 102.908 6.67529 105.934 -11.1597 107.01C-17.2299 107.375 -23.3278 107.336 -29.4133 107.402C-32.8765 107.439 -33.3784 107.689 -35.1789 111.273C-33.188 110.661 -31.3792 110.008 -29.5231 109.551C-21.6859 107.623 -13.6832 107.916 -5.72637 108.083C6.61967 108.341 18.9031 108.036 31.0532 105.577C31.3229 105.522 31.6023 105.513 32.0153 105.848C31.1602 106.192 30.3191 106.58 29.4473 106.878C17.1861 111.05 4.55922 113.537 -8.31515 114.638C-16.2441 115.316 -24.2148 115.504 -32.1675 115.902C-32.7458 115.931 -33.3298 115.909 -33.9068 115.866C-39.0982 115.478 -40.7332 116.505 -42.8479 121.649C-42.2737 121.519 -41.7801 121.497 -41.3714 121.299C-35.0176 118.238 -28.2259 116.794 -21.2688 116.442C-11.645 115.957 -1.99613 115.961 7.63461 115.575C13.777 115.328 19.9056 114.749 26.0397 114.323C26.5888 114.284 27.1394 114.267 27.69 114.239C27.7345 114.437 27.7776 114.634 27.8221 114.831C23.5176 115.945 19.2688 117.413 14.8976 118.101C5.04166 119.652 -4.85603 120.984 -14.7704 122.09C-24.0258 123.123 -33.3214 123.837 -42.6116 124.513C-46.3668 124.785 -47.1954 127.675 -48.9612 130.715C-47.8044 130.309 -47.1593 130.12 -46.542 129.862C-39.9324 127.098 -32.9377 126.031 -25.8902 125.305C-10.8608 123.757 4.20747 122.538 19.2007 120.704C25.0261 119.991 30.6945 117.984 36.6075 116.847C32.1446 118.732 27.7553 120.822 23.2034 122.461C10.6433 126.984 -2.37569 129.794 -15.5142 131.913C-27.4738 133.843 -39.5139 135.281 -51.5319 136.83C-54.0261 137.151 -53.9441 139.275 -55.1091 140.64C-51.5875 139.938 -48.316 138.979 -44.9876 138.693C-39.589 138.23 -34.1501 138.002 -28.732 138.048C-19.5406 138.125 -10.3714 138.185 -1.326 136.207C-1.12024 136.163 -0.8964 136.202 -0.557159 136.67C-5.60541 137.985 -10.5883 139.703 -15.7158 140.533C-26.6743 142.305 -37.7037 143.652 -48.7151 145.095C-51.2176 145.423 -53.7786 145.312 -56.2826 145.636C-58.7059 145.95 -61.0917 146.563 -63.3385 147.015C-63.9071 145.896 -64.4424 144.841 -65.1042 143.54C-63.2481 141.904 -64.1754 139.971 -64.9999 137.898C-68.3394 129.496 -71.3064 120.989 -72.9317 112.039C-74.4791 103.518 -74.7627 94.9581 -74.4638 86.3344C-73.9188 96.8207 -70.8726 106.668 -67.0186 116.335C-64.288 123.183 -61.8008 130.123 -61.4879 137.846C-59.9085 135.584 -58.2513 133.372 -56.8109 131.027C-56.4856 130.498 -56.8109 129.478 -57.0125 128.732C-59.3899 119.948 -61.9718 111.214 -64.1601 102.384C-66.7169 92.0668 -67.3606 81.5304 -66.8115 70.9328C-66.5167 65.2698 -66.0329 59.6166 -65.6339 53.9578C-65.449 53.9703 -65.264 53.9814 -65.0805 53.9939C-65.1653 55.7134 -65.2877 57.4329 -65.3294 59.1537C-65.67 72.9692 -62.9464 86.3065 -59.4275 99.5883C-57.4393 107.096 -56.277 114.826 -54.8825 122.482C-54.5669 124.214 -54.8366 126.053 -54.8366 127.791C-51.746 126.089 -50.0164 122.212 -50.8242 118.817C-57.0945 92.4908 -55.9016 66.5848 -46.3293 41.1848C-45.2393 38.2907 -43.7655 35.5413 -42.2417 32.8321C-43.5389 37.5165 -44.989 42.1648 -46.1027 46.8923C-48.7359 58.0598 -48.9904 69.3899 -48.2187 80.7951C-47.6612 89.024 -47.1732 97.2655 -47.0175 105.508C-46.9466 109.298 -47.7516 113.104 -48.1464 116.904C-48.2159 117.577 -48.2229 118.255 -48.259 118.931C-48.0714 119.006 -47.8837 119.081 -47.696 119.156C-45.5771 116.366 -43.4193 113.604 -41.3867 110.753C-41.1058 110.36 -41.3895 109.514 -41.5021 108.895C-46.2389 83.0608 -43.3707 57.8791 -35.0107 33.1699C-34.6867 32.2122 -34.2474 31.2933 -33.8484 30.362C-33.7969 30.2411 -33.6704 30.1535 -33.3632 29.8088C-33.4215 30.476 -33.3951 30.9014 -33.5022 31.292C-37.6467 46.4627 -38.5699 61.9421 -38.189 77.5827C-37.9443 87.6438 -37.9359 97.7187 -39.8407 107.675C-39.8796 107.878 -39.8198 108.101 -39.7711 108.826C-37.5522 106.123 -35.14 103.939 -33.765 101.229C-32.9335 99.5897 -33.669 97.1321 -33.7719 95.0471C-35.0037 69.8556 -32.0688 45.309 -22.3254 21.8425C-20.746 18.038 -18.8385 14.3697 -17.07 10.6445C-16.9504 10.3929 -16.7321 10.1899 -16.2984 10.0662C-16.7864 11.5424 -17.2507 13.027 -17.7652 14.4934C-22.2753 27.3637 -24.4832 40.6608 -25.2798 54.2372C-25.9958 66.4416 -26.2642 78.6947 -28.9753 90.699C-29.4661 92.873 -29.9805 95.0429 -30.1918 97.4282C-27.959 94.9275 -25.4077 92.6298 -23.642 89.8344C-22.8579 88.5931 -23.6337 86.3469 -23.7505 84.5607C-25.48 58.1028 -20.2469 33.0239 -8.83096 9.16824C-8.44584 8.36203 -7.95227 7.60723 -7.25572 6.96504C-8.54037 11.2366 -9.95294 15.4748 -11.0861 19.7853C-13.9876 30.818 -15.0207 42.1342 -16.1746 53.4449C-17.1631 63.1487 -18.5521 72.8121 -19.8409 82.4826C-20.0383 83.963 -20.6473 85.3877 -21.0658 86.8389C-21.2618 86.636 -21.4578 86.4317 -21.6539 86.2287C-18.9358 83.9644 -16.1774 81.7459 -13.5455 79.387C-13.1549 79.0367 -13.2452 78.0136 -13.305 77.3172C-14.68 60.9705 -11.9995 45.1408 -7.24182 29.578C-4.24986 19.795 -0.416733 10.3581 4.53558 1.39103C4.86231 0.798878 5.24048 0.233131 5.80773 -0.692627C4.00171 4.93004 1.85644 10.0398 0.749741 15.365C-1.86684 27.9684 -3.97734 40.676 -6.31864 53.3364C-7.74928 61.0747 -9.2272 68.8047 -10.6829 76.536C-8.43889 74.3453 -5.99331 72.0587 -3.69789 69.6318C-3.25855 69.1675 -3.31416 68.1542 -3.29331 67.3896C-2.65794 43.78 2.47791 21.2254 12.5341 -0.176926C13.0527 -1.28061 13.6839 -2.33286 14.5181 -3.30727C13.3808 0.301243 12.1573 3.88474 11.1243 7.52245C7.94187 18.7233 6.85603 30.255 5.86473 41.7964C5.2085 49.4402 4.26447 57.0284 1.37399 64.8681C4.65932 61.9199 7.49836 59.3997 10.2873 56.8282C10.5974 56.5418 10.8198 55.9233 10.7587 55.5063C8.38956 39.1484 12.9178 23.872 18.4638 8.87912C21.8701 -0.332611 26.1495 -9.22185 30.0521 -18.2473C30.3844 -19.0146 30.8404 -19.7277 31.5064 -20.3741C21.6031 3.63731 18.2789 29.2444 12.954 54.4999C15.0061 52.7721 17.0276 51.1471 18.9407 49.4013C19.4037 48.9787 19.7276 48.1669 19.7443 47.5247C20.2003 30.0576 24.787 13.5232 31.0379 -2.62894C35.9638 -15.3561 42.0548 -27.5035 49.4374 -38.9921C49.8837 -39.6871 50.3828 -40.3502 51.1767 -40.8548C50.9778 -40.3502 50.8277 -39.8206 50.5719 -39.3466C40.3308 -20.324 33.7128 -0.0532112 29.293 21.0419C27.5913 29.1666 25.0706 37.1203 22.9309 45.1547C22.8795 45.3479 22.924 45.5676 22.924 45.9582C25.7505 43.8759 28.2836 42.276 28.7716 38.0934C32.0667 9.86047 44.0554 -14.4776 62.7956 -35.6408C64.8101 -37.9148 66.9053 -40.118 69.2592 -42.1683C69.1785 -41.9557 69.1451 -41.7055 69.0103 -41.5373C54.7706 -23.8172 45.3901 -3.69926 39.3019 18.0978C37.4041 24.895 34.9878 31.5477 32.9009 37.9836C35.5578 36.8271 36.3823 35.854 36.9884 32.7237C38.7959 23.391 42.5859 14.7826 46.7999 6.36039C53.7821 -7.59273 61.9224 -20.8564 71.0777 -33.4932C71.4155 -33.9588 71.7701 -34.4134 72.3457 -34.7887C72.2483 -34.4662 72.2136 -34.1062 72.044 -33.8282C62.6788 -18.4266 55.7369 -1.8825 48.948 14.7492C46.4982 20.7527 43.4771 26.5228 40.5546 32.7431C41.9672 31.3934 43.9581 30.3759 44.4823 28.8538C49.6195 13.9416 57.3205 0.377697 65.8835 -12.7539C74.1225 -25.3907 83.2027 -37.3964 93.0726 -48.8057C93.5925 -49.4062 94.1653 -49.9594 94.7145 -50.5349C94.6631 -50.5544 94.6102 -50.5725 94.5588 -50.5919L94.563 -50.5877Z" fill="#75A703"/>
</svg>
